<?xml version="1.0" encoding="UTF-8"?><svg xmlns="http://www.w3.org/2000/svg" viewBox="0 0 1400 1700"><g style="isolation:isolate;"><g id="Capa_1"><ellipse cx="819.01" cy="1527.65" rx="539.98" ry="149.38" style="fill:#d7dadb; opacity:.44;"/><path d="m951.99,770.67c5.19-1.98,10.6-5.3,15.96-10.59,55.05-54.32,31.98-154.63,30.96-158.88-1.66-6.98-8.65-11.28-15.63-9.63-7.01,1.66-11.29,8.66-9.63,15.63.21.88,20.66,90.38-23.94,134.39-6.13,6.06-10.86,6.01-14.29,5.29-27.42-5.75-64.11-74.39-80.8-116.31-2.63-6.6-10.07-9.85-16.69-7.33-.06.02-.11.05-.18.07-6.66,2.65-9.92,10.2-7.26,16.86,4.94,12.42,49.75,121.68,99.6,132.12,5.9,1.23,13.6,1.52,21.9-1.64Z" style="fill:#9f283c;"/><path d="m993.81,597.29c-7.77,1.95-12.73,9.21-11.17,16.22.2.89,19.29,90.89-31.4,137.23-6.98,6.38-12.16,6.51-15.91,5.92-29.93-4.79-67.66-73.04-84.42-114.93-2.64-6.6-10.69-9.61-18.06-6.81-.07.03-.13.05-.21.08-1.06.42-2.05.95-2.95,1.56-.52-5.58,2.59-11.06,8.06-13.24.06-.03.12-.05.18-.07,6.62-2.52,14.06.73,16.69,7.33,16.69,41.92,53.38,110.56,80.8,116.31,3.43.72,8.16.76,14.29-5.29,44.61-44.02,24.15-133.51,23.94-134.39-1.66-6.97,2.62-13.98,9.63-15.63,5.35-1.27,10.69.99,13.65,5.26-1.03.04-2.07.19-3.12.45Z" style="fill:#db7f85;"/><path d="m814.75,484.12c3.14,2.75,6.92,4.95,11.1,6.75,21,9.22,52.07,9.24,61,22.03,10.72,15.36,24.95,59.96,36.65,59.66,0,0,.45,1.41,1.35,3.77l.45,1.1c3.05,7.65,10.09,22.75,21.81,34.2,8.2,8.02,18.69,14.25,31.69,14.88,8.32.39,16.29-.07,23.53-1.25,26.68-4.31,43.69-18.35,33.25-35.69,0,0,43.15-14.37,29.59-62.69-13.56-48.32-18.48-72.15-12.45-80.01,6.03-7.86,21.34-29.67,33.76-37.18,12.42-7.51,58.71-44.62,53.5-80.15-2.67-18.32-10.79-26.62-19.98-28.56-8.65-1.84-18.27,1.93-25.26,8.3-11.74,10.7-43.53,44.64-55.02,56.93-.92,1.02-1.71,1.85-2.34,2.53-1.2,1.29-1.87,2.02-1.87,2.02,0-.02.01-.03,0-.06,0-.06.02-.12.03-.15.51-4.56,9.57-86.85-15.7-126.51-12.08-18.99-26.48-32.14-40.1-37.17-12.21-4.55-23.81-2.54-32.65,7.61-2.5,2.84-4.76,6.38-6.75,10.55,0,0-8.52-2.53-18.92-2.96h-.02c-9.02-.39-19.45.81-26.93,6.55-16.11,12.4-19.98,27.77-11.62,55.15,7.5,24.57,26.15,109.19,17.72,147.03-.96,4.34-2.26,8.06-4,11,0,0-28.26-26.74-53.74-17.03-25.47,9.71-46.87,42.88-28.09,59.34Z" style="fill:#eee;"/><path d="m925.31,577.44c3.05,7.65,10.09,22.75,21.81,34.2,12.95-3.93,30.23-2.3,40.63-1.74,5.96.31,10.95,7.64,14.58,15.37,26.68-4.31,43.69-18.35,33.25-35.69,0,0,43.15-14.37,29.59-62.69-13.56-48.32-18.48-72.15-12.45-80.01,6.03-7.86,21.34-29.67,33.76-37.18,12.42-7.51,58.71-44.62,53.5-80.15-2.67-18.32-10.79-26.62-19.98-28.56,28.24,58.9-47.41,96.92-66.34,110.11-10.69,7.47-16.3,18.69-16.32,35.16-.02.59-.02,1.2.02,1.79.29,13.65,4.24,30.79,12.09,52.2,17.9,48.75-4.4,55.87-18.2,59.74-9.3,2.6-23.73-14.85-32.16-26.56-4.11-5.68-6.79-10-6.79-10l1.16,9.67.11.96c-.08,27.12-17.26,38.53-35.87,40.77-18.6,2.23-50.48-46.75-57.04-65.79-6.56-19.04-23.98-22.81-40.02-22.95-10.37-.1-25.45,2.78-34.8,4.79,21,9.22,52.07,9.24,61,22.03,10.72,15.36,24.95,59.96,36.65,59.66,0,0,.45,1.41,1.35,3.77l.45,1.1Z" style="fill:#cfcfcf;"/><path d="m937.4,406.79s2.76,1.12,6.59,2.71c7.22,2.97,18.23,7.58,21.66,9.44,0,0,.63-1.79,1.59-5.02,7.6-24.96,37.2-136.77-20.14-199.44-2.5,2.84-4.76,6.38-6.75,10.55,0,0-8.52-2.53-18.92-2.96,17.85,22.04,62.77,91.22,15.97,184.71Z" style="fill:#cfcfcf;"/><path d="m1035.55,370.56c.51-4.56,9.57-86.85-15.7-126.51-12.08-18.99-26.48-32.14-40.1-37.17,69.31,87.4,17.66,200.38,9.6,216.71-.64,1.3-1.01,2-1.01,2,3.6-.9,21.67,8.88,21.67,8.88,11.38-10.01,20.7-38.4,27.38-65.71l-1.84,1.81Z" style="fill:#cfcfcf;"/><path d="m925.31,577.44c73.32,54.86,110.28,12.14,110.28,12.14-44.13,20.91-95.63-4.69-110.73-13.24" style="fill:#9d9b9c;"/><path d="m1001.58,485.83s-10.19,11.53-13.42,17.62c0,0-13.9-12.76-21.82-15.3,0,0,39.91,44.53,25.91,67.93,0,0,14.63-18.09,1.11-46.28,0,0,2.22-10.57,8.22-23.98Z" style="fill:#9d9b9c;"/><path d="m1035.55,370.56s-.02.09-.03.15c0,.03-.01.03,0,.06-6.08,21.39-17.68,56.77-29.45,61.25,0,0-7.87-4.12-16.72-8.44-8.72-4.29-18.38-8.8-22.1-9.66-.31-.08-.55-.13-.78-.15,0,0,26.43-112.9-10.22-172.56,0,0,26.52,96.87-.21,168.89,0,0-6.11-.5-12.04-.6h-.03c-3.8-.07-7.53,0-9.51.5,0,0,72.03,33.59,102.91,38.04,2.03.31,3.93.48,5.58.49l-5.59-2.28-19.91-8.14s19.73-41.45,22.3-71.89c-.92,1.02-1.71,1.85-2.34,2.53l-1.84,1.81Z" style="fill:#9d9b9c;"/><path d="m896.57,441.81s18.47,13.8,26.9,28.64c0,0-13.39-27.96-22.9-39.65-.96,4.34-2.26,8.06-4,11Z" style="fill:#9d9b9c;"/><path d="m881.14,1057.7c.08-.21.16-.43.25-.64,3.44-8.11,12.8-11.89,20.9-8.46l192.66,81.69c8.11,3.44,11.89,12.87,8.46,20.91-3.44,8.11-12.8,11.89-20.9,8.46l-192.66-81.69c-7.9-3.35-11.69-12.31-8.71-20.27Z" style="fill:#9f283c;"/><path d="m1103.41,1151.2c.65-1.53,1.04-3.11,1.19-4.69-4.42,3.47-10.54,4.5-16.09,2.15l-192.66-81.69c-6.58-2.79-10.29-9.48-9.63-16.23-2.06,1.61-3.74,3.74-4.83,6.32-.09.21-.18.42-.25.64-2.99,7.95.81,16.92,8.71,20.27l192.66,81.69c8.11,3.44,17.47-.35,20.9-8.46Z" style="fill:#db7f85;"/><path d="m1354.73,1024.84c-3.19,12.04-7.04,23.2-11.38,33.52-24.45,58.41-63.97,89.85-84.3,101.15-23.92,13.29-74.41,45.18-83.72,57.57-9.3,12.41-17.27,10.21-17.27,10.21-29.45,3.01-52.78-30.35-59-40.23-1.12-1.73-1.67-2.74-1.67-2.74-.64.11-1.25.21-1.86.32-23.65,3.75-28.78-3.72-31.81-15.39-.85-3.3-1.14-6.91-.9-10.87.43-8.61,3.19-18.92,7.41-31.49.85-2.61,1.81-5.31,2.79-8.13,7.97-22.59,21.71-29.23,35-29.23,11.85,0,15.95,15.52,16.69,18.87.08.4.13.64.13.64.79-.08,1.67-.19,2.61-.34.29-.02.58-.08.9-.13,6.03-.98,14.59-3.24,22.85-8.56,10.39-6.72,20.31-18.28,24.13-38.38,1.75-9.14,3.93-16.82,6.24-23.25,2.1-5.84,4.34-10.63,6.46-14.51,5.53-10.21,10.34-14.06,10.34-14.06,55.36-60.68,143.97,3.99,143.97,3.99,6.38-2.47,10.5,6.12,11.88,9.65v.03c.34.85.5,1.41.5,1.41Z" style="fill:#eee;"/><path d="m1127.44,1108.67c-.93.16-1.81.26-2.61.34,0,0-.05-.24-.13-.64l-2.95,5.05-6.06,14.46v.03l-7.68,18.31s-.5-.05-1.38-.19c-5.5-.74-26.12-4.52-36.41-19.16-4.23,12.57-6.99,22.88-7.41,31.49-.24,3.96.05,7.57.9,10.87,3.03,11.67,8.16,19.14,31.81,15.39l3.54,2.42c6.22,9.88,29.56,43.24,59,40.23,0,0,7.97,2.21,17.27-10.21,9.3-12.39,59.8-44.28,83.72-57.57,20.33-11.3,59.85-42.74,84.3-101.15,4.33-10.31,8.19-21.47,11.38-33.52,0,0-.16-.56-.5-1.41-9.12,17.04-34.21,60.62-62.38,80.69-35.45,25.25-88.16,45.18-97.46,57.59-9.3,12.41-23.04,35.88-40.32,29.69-17.27-6.22-36.3-21.71-39.41-30.56l2.07-18.31v-.03l.13-1.17.19-.26,6.03-8.59s54.03-18.15,59.35-35c4.65-14.72,7.63-52.59,5.61-73.64-2.12,3.88-4.36,8.66-6.46,14.51-2.31,6.43-4.49,14.11-6.24,23.25-3.83,20.09-13.74,31.65-24.13,38.38-8.26,5.31-16.82,7.58-22.85,8.56l-.9.13Z" style="fill:#cfcfcf;"/><path d="m1099.05,1187.04c6.22,9.88,29.56,43.24,59,40.23,0,0,7.97,2.21,17.27-10.21,9.3-12.39,59.8-44.28,83.72-57.57,20.33-11.3,59.85-42.74,84.3-101.15-10.66,15.97-27.98,39.49-45.31,52.41-27.91,20.84-69.98,50.07-89.49,64.24-19.48,14.17-37.63,39.41-49.59,37.21-11.96-2.21-47.41-24.37-50.95-31.89-.61-1.33-1.25-2.52-1.86-3.61-2.81-5.05-5.23-7.47-5.23-7.47,0,0-.9-.16-2.44-.48-6.73-1.33-25.67-5.39-35.67-10.39-.24,3.96.05,7.57.9,10.87,3.03,11.67,8.16,19.14,31.81,15.39l3.54,2.42Z" style="fill:#bcbcbc;"/><path d="m1177.11,1094.82c-5.93,5.58-19.51,9.25-25.91,5.15,10.39-6.72,20.31-18.28,24.13-38.38,1.75-9.14,3.93-16.82,6.24-23.25.64,17.91,1.01,51.35-4.46,56.48Z" style="fill:#bcbcbc;"/><path d="m1127.44,1108.67c-3.88,5.55-7.95,12.25-11.75,19.21v.03c-3.32,6.06-6.46,12.3-9.06,18.12-1.91,4.2-3.53,8.19-4.81,11.69-1.38,3.83-2.5,7.55-3.35,11.03-1.68,6.67-2.53,12.38-2.95,15.87l3.54,2.42c2.53-1.84,4.92-5.59,7.1-10.34,4.44-9.59,8.13-23.39,10.58-34.18v-.03l.32-1.43c1.65-7.39,2.68-13.15,2.92-14.78.56-3.72,5.15-12.17,8.37-17.75l-.9.13Z" style="fill:#9d9b9c;"/><path d="m652.38,1398.31c-.23,0-.46,0-.69-.02-8.8-.37-15.63-7.81-15.26-16.6l8.86-209.08c.37-8.8,7.87-15.65,16.61-15.26,8.8.37,15.63,7.81,15.26,16.61l-8.86,209.08c-.36,8.57-7.43,15.27-15.92,15.27Z" style="fill:#9f283c;"/><path d="m661.9,1157.36c-1.66-.07-3.28.11-4.81.53,4.8,2.92,7.92,8.3,7.66,14.31l-8.86,209.08c-.3,7.14-5.26,12.96-11.81,14.72,2.23,1.36,4.82,2.19,7.61,2.31.23.01.46.02.69.02,8.49,0,15.56-6.7,15.92-15.27l8.86-209.08c.37-8.8-6.46-16.23-15.26-16.61Z" style="fill:#db7f85;"/><path d="m748.34,1499c-4.25,28.76-32.16,48.95-54.32,58.34-17.54,7.39-36.92,13.77-59.72,12.54-14.11-.74-29.5-4.41-46.59-12.54-44.76-21.26-51.83-70.43-46.51-91.26,5.32-20.81,50.04-70.43,50.04-70.43-6.19-6.19-12.41-12.38.88-32.32,3.61-5.45,8.93-9.7,14.75-13,9.68-5.53,20.76-8.43,27.67-9.81,4.12-.82,6.75-1.12,6.75-1.12,24.74-1.22,41.49,4.92,51.24,12.94,4.39,3.59,7.36,7.57,9.01,11.4,4.49,10.47-4.92,17.8-7.95,19.82-.56.37-.9.56-.9.56l1.75,3.99s37.21,42.52,51.4,85.05c3.08,9.25,3.72,17.89,2.5,25.83Z" style="fill:#eee;"/><path d="m748.34,1499c-4.25,28.76-32.16,48.95-54.32,58.34-17.54,7.39-36.92,13.77-59.72,12.54-14.11-.74-29.5-4.41-46.59-12.54-44.76-21.26-51.83-70.43-46.51-91.26,5.32-20.81,50.04-70.43,50.04-70.43-6.19-6.19-12.41-12.38.88-32.32,3.61-5.45,8.93-9.7,14.75-13,9.68-5.53,20.76-8.43,27.67-9.81.88,3.77,1.25,8.9,1.62,14.64,1.44-.19,3.19-.69,5.26-1.59,8.96-3.99,36.87,6.32,44.17,7.31,3.93.53,5.95-4.12,6.93-8.53,4.39,3.59,7.36,7.57,9.01,11.4,4.49,10.47-4.92,17.8-7.95,19.82-2.29-1.48-4.01-2.76-4.01-2.76l-10.31-8.64-19.93-5.98-22.19,1.88c.53,5.61,1.38,11.29,2.82,16.51,5.31,19.03-7.52,38.54-10.18,55.81-2.66,17.27-20.38,53.15-20.38,53.15-5.31,30.11.27,49.12,50.07,55.81,33.11,4.44,72.56-33.01,88.87-50.37Z" style="fill:#cfcfcf;"/><path d="m634.29,1569.88c-14.11-.74-29.5-4.41-46.59-12.54-44.76-21.26-51.83-70.43-46.51-91.26,5.32-20.81,50.04-70.43,50.04-70.43-6.19-6.19-12.41-12.38.88-32.32,3.61-5.45,8.93-9.7,14.75-13-2.39,13.48,1.2,35.59,1.2,35.59-27.45,30.56-18.6,84.59-18.6,84.59-16.37,18.15-19.48,37.21-6.19,62,9.41,17.57,35.88,31.12,51.03,37.36Z" style="fill:#bcbcbc;"/><path d="m567.76,1485.13s70.87-62.01,163.01-10.63c0,0-89.47-78.4-163.01,10.63Z" style="fill:#9d9b9c;"/><path d="m596.11,1389.45s39.42-34.99,95.68-7.53c0,0-38.09-51.38-95.68,7.53Z" style="fill:#9d9b9c;"/><polygon points="762.67 255.19 993.62 1044.39 969.15 1060.76 937.34 1082.05 905.71 1103.2 874.26 1124.25 840.36 1146.97 809.24 1167.8 770.9 1193.43 731.37 1219.89 731.09 1219.89 727.15 1220.08 683.71 1222.02 662.23 1223.01 623.79 1224.73 596.62 1225.96 557.22 1227.71 525.15 1229.17 164.63 474.72 762.67 255.19" style="fill:#f2dfdf;"/><polygon points="731.09 1219.89 683.71 1222.02 368.97 399.72 413.41 383.4 731.09 1219.89" style="fill:#cd444b;"/><polygon points="770.9 1193.43 731.37 1219.89 731.09 1219.89 727.15 1220.08 406.69 385.87 456.35 367.64 770.9 1193.43" style="fill:#cd444b;"/><polygon points="662.23 1223.01 623.79 1224.73 289.91 428.74 330.61 413.8 662.23 1223.01" style="fill:#cd444b;"/><polygon points="542.74 335.93 840.36 1146.97 809.24 1167.8 502.48 350.71 542.74 335.93" style="fill:#cd444b;"/><polygon points="634.91 302.1 905.71 1103.2 874.26 1124.25 594.64 316.88 634.91 302.1" style="fill:#cd444b;"/><polygon points="726.03 268.65 969.15 1060.76 937.34 1082.05 685.7 283.45 726.03 268.65" style="fill:#cd444b;"/><polygon points="596.62 1225.96 557.22 1227.71 205.94 459.56 253.02 442.28 596.62 1225.96" style="fill:#cd444b;"/><polygon points="422.77 379.97 731.09 1219.89 727.15 1220.08 683.71 1222.02 662.23 1223.01 623.79 1224.73 596.62 1225.96 557.22 1227.71 525.15 1229.17 164.63 474.72 422.77 379.97" style="fill:#8e1b26; opacity:.42;"/><path d="m190.8,503.04s-41.64,36.21-38.71-24.38c0,0-43.51-9.86-9.79-44.48,0,0-18.71-27.8,10.48-45.38,0,0-34.36-18.78.85-39.55,0,0-14.61-33.55,22.16-44.76,0,0-5.36-29.75,32.5-59.34,0,0-4.81-30.93,15.46-38.05,0,0-14.58-58.42,42.06-28.85,0,0,4.38-35.29,48-25.14,0,0,9.5-58.75,49.39-33.83,0,0,9.38-46.61,53.65-11.52,0,0,16.62-12.64,32.02-.96,0,0,12.44-41.84,43.21-3.44,0,0,16.27-14.47,34.98,7.11,0,0,16-42.82,44.71,14,0,0,21.29-54.25,46.26-2.26,0,0,25.57-34.57,47.93,20.99,0,0,33.33-34.8,50.1,18.89,0,0,25.56-2.52,18.52,34.41,0,0,39.63-9.64,30.62,29.96,0,0,70.02,22.37,5.3,59.86,0,0-26.58,55.87-63.78,10.66,0,0-14.86,29-40.63,14.91,0,0,19.41,44.87-34.87,22.61,0,0-17.4,22.08-35.85,9.24,0,0-3.52,6.9-15.62,13.58-10.6,5.85,18.55,45.19-36.28,24.11,0,0-27.69,28.8-35.83-9.41,0,0-5.22,68.63-51.61,27.77,0,0-16.42,35.46-37.58,9.87,0,0-3.38,52.25-47.72,11.63,0,0-8.63,32.6-29.62,12.84,0,0-26.13,22.35-31.12,11.42,0,0-18.8,53.01-43.72,9.18,0,0,.88,29.11-32.27,21.66,0,0-4.34,45.02-43.19,26.65Z" style="fill:#efce79;"/><path d="m246.6,262.33s14.34-32.4,40.66-14.92c0,0-20.55-4.22-40.66,14.92Z" style="fill:#daa976;"/><path d="m199.81,388.06s9.39-42.8,49.74-14.19c0,0-29.8-12.8-49.74,14.19Z" style="fill:#daa976;"/><path d="m306.3,309.62s-4.96-49.74,38.02-13.96c0,0-32.93-19.12-38.02,13.96Z" style="fill:#daa976;"/><path d="m353.4,379.17s-1.01-43.05,43.53-15.98c0,0-33.81-13.37-43.53,15.98Z" style="fill:#daa976;"/><path d="m183.52,454.65s3.03-18.3,27.73-10.18c0,0-17.71-3.11-27.73,10.18Z" style="fill:#daa976;"/><path d="m188.94,321.49s22.29-42.78,50.22-18.43c0,0,11.2-19.38,28.4-10.42,0,0-13.69-3.11-28.45,12.14,0,0-22.7-21.18-50.17,16.72Z" style="fill:#daa976;"/><path d="m324.24,217.55s4.64-24.32,32.68-12c0,0-25.03-5.96-32.68,12Z" style="fill:#daa976;"/><path d="m464.67,176.25s14.46-33.95,46.54-17.08c0,0-25.99-7.34-46.54,17.08Z" style="fill:#daa976;"/><path d="m485.43,340s4.21-25.49,36.47-13.39c0,0-29.69-6.94-36.47,13.39Z" style="fill:#daa976;"/><path d="m594.69,280.95s3.7-36.11,44.24-16.24c0,0-33.92-7.38-44.24,16.24Z" style="fill:#daa976;"/><path d="m495.55,234.49s7.34-48.38,52.61-19.31c0,0-32.63-24.21-52.61,19.31Z" style="fill:#daa976;"/><path d="m622.78,201.59s1.26-38.46,43.05-15.8c0,0-35.99-13.02-43.05,15.8Z" style="fill:#daa976;"/><path d="m492.09,103.37s.31-.28.9-.71c-.87,9.38,1.49,18.85,1.49,18.85-20.29,7.12-15.47,38.06-15.47,38.06-37.84,29.6-32.49,59.34-32.49,59.34-36.75,11.21-22.16,44.77-22.16,44.77-35.2,20.76-.84,39.55-.84,39.55-29.2,17.59-10.48,45.37-10.48,45.37-33.72,34.63,9.79,44.49,9.79,44.49-.49,9.84.23,17.12,1.72,22.43-1.96-1.42-3.99-3.34-6.08-5.85,0,0-3.4,52.24-47.73,11.63,0,0-8.64,32.59-29.62,12.83,0,0-26.15,22.35-31.14,11.43,0,0-18.81,53.01-43.71,9.18,0,0,.88,29.09-32.27,21.64,0,0-4.34,45.01-43.19,26.65,0,0-41.66,36.22-38.72-24.38,0,0-43.51-9.86-9.78-44.47,0,0-18.7-27.79,10.47-45.39,0,0-34.35-18.76.87-39.56,0,0-14.61-33.52,22.16-44.74,0,0-5.36-29.76,32.49-59.34,0,0-4.81-30.93,15.45-38.05,0,0-14.55-58.43,42.08-28.85,0,0,4.36-35.3,47.97-25.15,0,0,9.51-58.74,49.4-33.82,0,0,9.37-46.62,53.65-11.53,0,0,16.61-12.64,32-.95,0,0,12.45-41.86,43.22-3.44Z" style="fill:#b78e34; opacity:.32;"/><path d="m852.3,684.01s-4.42,45.21-8.89,51.47c-4.46,6.26-38.91,38.99-38.91,38.99l-53.34,12.33-35.83-14.26s-27.96-31.44-34.45-46.99c-6.49-15.54,6.31-16.83,6.31-16.83l134.89-72.5,17.16-11.61,13.05,59.39Z" style="fill:#993652;"/><path d="m854.41,706.42c-.88,12.66-3.83,25.1-9.98,36.07-1.16,2.1-2.44,4.15-3.86,6.13-.7.99-1.42,1.95-2.18,2.91-3.63,4.52-7.44,8.59-11.42,12.23-35.74,32.74-83.39,31.22-105.36,15.82-.52-.35-1-.72-1.49-1.08-4.98-3.85-10.12-9.04-15.22-15.06-1.96-2.33-3.91-4.76-5.85-7.29-6.36-8.3-12.56-17.57-18.21-26.64-.98-1.58-1.93-3.15-2.88-4.7-1.34-2.21-2.64-4.39-3.89-6.54l4.54-1.98,10.41-4.53s52.72-26.95,83.74-37.29c4.1-1.38,7.82-2.45,11-3.14,16.72-3.62,45.03,15.14,64.28,30.07,2.27,1.74,4.41,3.44,6.37,5.04Z" style="fill:#6b0f27;"/><path d="m852.66,672.53c1.69,10.83,2.56,22.45,1.74,33.9-.88,12.66-3.83,25.1-9.98,36.07-1.24-1.77-3-4.27-5.05-7.23-3.11-4.42-6.94-9.91-10.86-15.54-9.25-13.28-32.43-25.18-40.21-23.41-7.78,1.78-24.54,23.77-33.35,26.76-8.81,2.99-48.49,13.51-31.22,36.09,5.59,7.3,4.81,12.98,1.18,17.31-.93,1.11-2.07,2.15-3.31,3.1-.52-.35-1-.72-1.49-1.08-4.98-3.85-10.12-9.04-15.22-15.06-1.96-2.33-3.91-4.76-5.85-7.29-6.36-8.3-12.56-17.57-18.21-26.64-.98-1.58-1.93-3.15-2.88-4.7l4.15-2.1,47.95-24.07,42.69-24.17,28.5-16.13,45.11,12.47,6.29,1.73Z" style="fill:#8e243f;"/><path d="m840.57,748.61c-.7.99-1.42,1.95-2.18,2.91-3.63,4.52-7.44,8.59-11.42,12.23-36.55,33.5-85.6,31.12-106.85,14.74-4.98-3.85-10.12-9.04-15.22-15.06.71-.69,1.54-1.43,2.43-2.18,1.16-1.01,2.5-2.04,3.96-3.09,4.84-3.42,11.29-6.81,19.36-8.72,4.38-1.03,9.23-1.64,14.58-1.56,0,0,.66-1.32,2.08-3.27,4.74-6.63,17.87-20.52,41.97-14.63,16.59,4.05,32.71,10.37,44.17,15.4,2.62,1.17,5.04,2.26,7.12,3.24Z" style="fill:#e5504f;"/><path d="m826.97,763.75c-36.55,33.5-85.6,31.12-106.85,14.74-4.98-3.85-10.12-9.04-15.22-15.06-1.96-2.33-3.91-4.76-5.85-7.29l3.24-1.36c1.68,2.26,3.35,4.43,5.03,6.46,1.16-1.01,2.5-2.04,3.96-3.09,16.39,14.89,58.35,17.04,74.5,14.69,7.05-1.03,16.06-2.96,24.36-4.93,6.44-1.5,12.42-3.04,16.81-4.17Z" style="fill:#b54338;"/><path d="m771.81,765.39l-41.16-15.96c4.38-1.03,9.23-1.64,14.58-1.56,0,0,.66-1.32,2.08-3.27l24.51,20.78Z" style="fill:#b54338;"/><path d="m654.93,682.85s2.43,5,6.56,12.81c3.26,6.14,7.56,14.04,12.59,22.59,1.24,2.15,2.54,4.34,3.89,6.54.94,1.56,1.9,3.12,2.88,4.7,5.65,9.07,11.85,18.34,18.21,26.64,1.94,2.53,3.89,4.96,5.85,7.29,5.1,6.02,10.24,11.21,15.22,15.06.49.37.97.74,1.49,1.08,21.97,15.4,69.62,16.93,105.36-15.82,3.98-3.64,7.79-7.71,11.42-12.23.76-.96,1.48-1.92,2.18-2.91,1.42-1.97,2.7-4.03,3.86-6.13,6.15-10.96,9.1-23.41,9.98-36.07.82-11.45-.05-23.07-1.74-33.9-3.07-19.87-8.91-37.06-12.21-45.8-.58-1.49-1.06-2.74-1.45-3.7-.63-1.55-.99-2.37-.99-2.37-79.63,47.79-183.08,62.21-183.08,62.21Zm179.09-56.1c.7,1.86,1.39,3.69,2.03,5.49,5.13,14.2,8.44,27,10.31,38.55,1.84,11.38,2.29,21.53,1.67,30.59-.9,13.61-4.19,24.75-8.67,33.87-1.8,3.69-3.79,7.05-5.93,10.12-7.43,10.75-16.3,17.84-23.29,22.54-3.28,2.23-6.15,3.91-8.26,5.18-13.68,8.31-51.85,16.36-76.97,3.37-3.38-1.75-6.53-3.87-9.35-6.44-2.72-2.46-5.48-5.44-8.25-8.79-1.68-2.03-3.35-4.2-5.03-6.46-5.95-8.08-11.78-17.41-17.03-26.52-1.07-1.88-2.12-3.72-3.14-5.56-1.2-2.17-2.38-4.31-3.5-6.42-4.42-8.25-8.12-15.67-10.68-20.91-2.42-5-3.81-8.06-3.81-8.06,59.99-.42,169.84-60.67,169.84-60.67.02.03.03.08.05.11Z" style="fill:#ad4d6d;"/><path d="m836.06,632.25c-.65-1.8-1.33-3.63-2.03-5.49-.02-.04-.03-.08-.05-.11,0,0-109.86,60.25-169.84,60.67,0,0,1.39,3.06,3.81,8.06,2.56,5.25,6.25,12.66,10.68,20.91,1.11,2.11,2.3,4.25,3.5,6.42,1.02,1.84,2.07,3.68,3.14,5.56,32.48-9.41,101.51-35.41,150.8-96.01Z" style="fill:#fafffd;"/><path d="m834.02,626.75s-.03-.08-.05-.11c0,0-109.86,60.25-169.84,60.67,0,0,1.39,3.06,3.81,8.06,28.71-1.85,90.75-12.92,166.08-68.61Z" style="fill:#e5e5e5;"/><path d="m456.25,1027.73c-5.64.7-12.13.29-19.51-1.92-75.83-22.71-103.08-124.48-104.2-128.8-1.85-7.11,2.42-14.36,9.52-16.2,7.13-1.86,14.35,2.41,16.2,9.52.24.9,24.67,91.62,86.11,110.04,8.45,2.53,12.71.23,15.46-2.07,22.04-18.34,22.3-98.02,17.28-143.92-.79-7.23,4.38-13.74,11.57-14.63.07,0,.13-.02.19-.02,7.3-.8,13.86,4.47,14.65,11.77,1.49,13.61,13.37,133.88-26.69,167.23-4.74,3.95-11.56,7.9-20.58,9.02Z" style="fill:#9f283c;"/><path d="m335.28,891.01c7.97-1.97,15.93,2.22,17.89,9.31.25.9,26.15,91.45,94.22,109.03,9.36,2.42,14.12.06,17.22-2.28,24.76-18.69,26.15-98.5,21.21-144.41-.78-7.23,5.06-13.82,13.07-14.82.08,0,.15-.02.22-.03,1.17-.13,2.31-.12,3.42,0-2.21-5.29-7.65-8.75-13.64-8.1-.07,0-.13.02-.19.02-7.19.89-12.36,7.4-11.57,14.63,5.02,45.91,4.76,125.58-17.28,143.92-2.75,2.3-7.01,4.6-15.46,2.07-61.44-18.41-85.87-109.14-86.11-110.04-1.85-7.11-9.07-11.38-16.2-9.52-5.45,1.42-9.2,6.02-9.83,11.3.95-.45,1.97-.83,3.04-1.09Z" style="fill:#db7f85;"/><path d="m407.94,742.16c-.31,4.26-1.5,8.57-3.27,12.89-8.71,21.8-31.38,44.11-28.73,59.85,3.2,18.91,24.81,61.67,16.06,69.85,0,0,.68,1.35,1.72,3.72l.46,1.13c3.25,7.77,8.95,23.85,8.61,40.62-.23,11.74-3.42,23.81-12.45,33.59-5.79,6.24-11.94,11.63-18.07,15.97-22.56,16-45.06,17.95-49.87-2.2,0,0-41.81,20.47-66.58-24.53-24.77-45.01-38.28-65.93-48.32-67.34-10.04-1.41-36.86-6.35-51.32-2.93-14.46,3.43-74.87,9.56-96.56-20.12-11.19-15.3-11.22-27.17-5.91-35.18,4.99-7.55,14.73-11.7,24.4-12.07,16.24-.61,63.81,1.35,81.01,2.09,1.4.08,2.58.12,3.52.17,1.81.08,2.82.13,2.82.13-.01-.02-.03-.01-.04-.04-.05-.04-.1-.08-.13-.09-3.64-2.96-69.3-56.53-79.31-103.61-4.81-22.53-3.73-42.47,2.6-55.91,5.65-12.08,15.56-18.93,29.29-17.86,3.86.28,8.05,1.23,12.5,2.85,0,0,4.41-7.96,11.69-15.73h.02c6.29-6.77,14.77-13.38,24.36-14.56,20.66-2.51,34.51,5.94,48.05,31.92,12.15,23.32,59.25,98.47,92.56,120.04,3.81,2.48,7.43,4.26,10.81,5.16,0,0,1.44-39.8,27.01-50.99,25.56-11.18,64.98-2.32,63.08,23.17Z" style="fill:#eee;"/><path d="m393.73,888.47c-1.04-2.37-1.72-3.72-1.72-3.72,8.75-8.18-12.86-50.94-16.06-69.85-2.66-15.75,20.02-38.06,28.73-59.85-8.27,5.24-21.34,13.95-28.84,21.47-11.6,11.61-21.61,26.86-12.74,45.46,8.86,18.61,20.74,77.24,5.56,88.95-15.18,11.72-35.91,15.71-55.43-4.03l-.6-.78-6.09-7.89s1.14,5.07,2.22,12.17c2.24,14.6,4.22,37.69-4.43,42.46-12.86,7.08-34.24,17.88-56.16-30.55-9.62-21.26-19.04-36.61-28.62-46.77-.41-.46-.83-.91-1.28-1.33-11.84-11.99-23.99-16.16-37.14-13.94-23.28,3.94-105.78,30.47-127.43-32.78-5.31,8.01-5.28,19.89,5.91,35.18,21.69,29.67,82.1,23.54,96.56,20.12,14.46-3.43,41.28,1.52,51.32,2.93,10.04,1.41,23.55,22.33,48.32,67.34,24.77,45,66.58,24.53,66.58,24.53,4.81,20.15,27.31,18.19,49.87,2.2-2.89-8.25-4.5-17.18-.38-21.68,7.2-7.87,18.63-21.46,30.91-27.88.35-16.77-5.35-32.85-8.61-40.62l-.46-1.13Z" style="fill:#cfcfcf;"/><path d="m262.92,773.71s-1.22,2.79-2.87,6.71c-3.14,7.35-7.87,18.62-9.04,22.44,0,0-1.74-.86-4.76-2.53-23.46-12.77-125.28-73.14-128.4-160.03,3.86.28,8.05,1.23,12.5,2.85,0,0,4.41-7.96,11.69-15.73,2.78,28.9,19.63,111.62,120.88,146.29Z" style="fill:#cfcfcf;"/><path d="m162.63,817.68c24.47,15.14,51.65,29.18,67.14,28.32,0,0,6.17-20.1,9.45-22.03,0,0-.77-.24-2.17-.73-17.6-6.14-136.37-51.55-148.48-165.08-6.33,13.44-7.41,33.38-2.6,55.91,10.01,47.08,75.67,100.66,79.31,103.61h-2.64Z" style="fill:#cfcfcf;"/><path d="m393.73,888.47c-4.89,17.08-24.11,72.71-71.33,89.11,0,0,57.62,4.67,71.79-87.98" style="fill:#9d9b9c;"/><path d="m272.78,877.45s15.71,1.11,22.45,3.24c0,0,.99-19.29,4.94-26.82,0,0,2.82,61.14,29.83,68.17,0,0-23.66-2.7-34.01-32.98,0,0-9.21-6.13-23.21-11.61Z" style="fill:#9d9b9c;"/><path d="m162.63,817.68c-.95-.05-2.12-.09-3.52-.17,23.71,20.37,67.86,36.48,67.86,36.48l-8.7,20.22-2.44,5.68c1.19-1.19,2.46-2.67,3.72-4.35,19.34-25.41,47.82-101.6,47.82-101.6-1.81,1.05-4.57,3.68-7.31,6.44v.03c-4.27,4.33-8.37,9.08-8.37,9.08-71.18-33.4-121.33-123.14-121.33-123.14,16.06,69.85,116.35,133.3,116.35,133.3-.15.18-.29.39-.46.67-2.1,3.3-5.92,13.53-9.21,22.92-3.36,9.51-6.16,18.15-6.16,18.15-11.81,5.16-45.66-12.33-65.44-23.58-.01-.02-.03-.01-.04-.04-.05-.04-.1-.08-.13-.09h-2.64Z" style="fill:#9d9b9c;"/><path d="m317.85,769.98s-3.58,23.32.91,40.21c0,0-10.29-30.02-11.73-45.38,3.81,2.48,7.43,4.26,10.81,5.16Z" style="fill:#9d9b9c;"/><path d="m798.23,478.93c3.23,6.8,5.8,13.7,7.66,20.59.39,1.41.75,2.81,1.07,4.21,8.75,37.48-2.49,73.2-29.77,86.21-26.67,12.72-60.56-.1-84.11-29.04-.98-1.18-1.93-2.4-2.86-3.67-4.73-6.27-8.95-13.23-12.57-20.79-21.66-45.42-12.23-95.13,21.05-111.01,33.29-15.89,77.84,8.06,99.52,53.49Z" style="fill:#dc6c00;"/><path d="m803.52,500.28c.45-.67,1.28-1.01,2.08-.83.02,0,.13.03.29.06-1.88-6.87-4.41-13.78-7.66-20.59-21.67-45.43-66.23-69.37-99.52-53.49-33.29,15.89-42.72,65.59-21.05,111.01,3.61,7.55,7.85,14.5,12.56,20.78,24.05-2.2,83.33-12.13,113.3-56.95Z" style="fill:#fcaf52;"/><path d="m704.71,432.87c-3.01,1.43-5.78,3.21-8.32,5.26,27.4,5.44,55.08,28.16,71.12,61.81,2.73,5.72,4.98,11.5,6.8,17.28,7.27-5.69,13.94-12.53,19.44-20.76.38-.57,1.09-.86,1.76-.71.02,0,.11.03.25.06-1.6-5.84-3.75-11.71-6.51-17.49-18.42-38.6-56.28-58.94-84.56-45.45Z" style="fill:#ffc688;"/><path d="m806.06,503.56c-30.05,43.74-87.09,54.62-112.97,57.33,23.57,28.93,57.44,41.77,84.09,29.05,27.29-13.02,38.52-48.74,29.77-86.21-.33-.06-.64-.12-.9-.17Z" style="fill:#fcaf52;"/><path d="m806.67,503.85c.09,0,.21,0,.31,0-.01-.04-.02-.08-.03-.12-.33-.06-.64-.12-.9-.17-30.05,43.74-87.09,54.62-112.97,57.33,5.32,6.53,11.17,12.23,17.33,17.01,26.77-8.3,75.52-29.06,96.25-74.06Z" style="fill:#c67926;"/><path d="m689.08,524.94c-13.17-23.44-18.61-48.48-16.88-70.56-9.52,22.55-8.34,53.17,5.45,82.06,21.67,45.43,66.23,69.38,99.52,53.49,3.05-1.45,5.89-3.19,8.53-5.18-33.72,4.75-73.49-18.61-96.63-59.82Z" style="fill:#d3873c;"/><path d="m686.45,546.36c-4.28-5.13-8.09-10.46-11.44-15.9.83,2,1.7,3.99,2.65,5.98,21.67,45.43,66.23,69.38,99.52,53.49.03,0,.05-.02.08-.03-29.66,3.19-65.07-12.6-90.81-43.54Z" style="fill:#9b5510;"/><path d="m805.89,499.51c.39,1.41.75,2.81,1.07,4.21-.35-.06-.65-.12-.91-.17-30.03,43.73-87.08,54.62-112.97,57.34-.98-1.18-1.93-2.4-2.86-3.67,24.06-2.21,83.34-12.16,113.3-56.96.45-.67,1.27-1.01,2.06-.83.03,0,.13.02.31.07Z" style="fill:#4b382d;"/><path d="m693.47,526.59c3.96,8.33,7.09,16.76,9.38,25.18.48,1.73.92,3.44,1.31,5.16,10.71,45.84-3.05,89.53-36.41,105.44-32.63,15.56-74.06-.12-102.88-35.51-1.2-1.45-2.37-2.93-3.5-4.49-5.79-7.67-10.95-16.18-15.37-25.43-26.49-55.55-14.96-116.35,25.75-135.77,40.72-19.43,95.2,9.86,121.72,65.42Z" style="fill:#dc6c00;"/><path d="m699.94,552.7c.55-.82,1.56-1.23,2.54-1.01.03,0,.16.03.36.08-2.29-8.41-5.39-16.85-9.37-25.18-26.51-55.56-81-84.85-121.73-65.42-40.72,19.43-52.25,80.22-25.74,135.78,4.41,9.24,9.6,17.73,15.36,25.41,29.41-2.69,101.92-14.83,138.57-69.65Z" style="fill:#fcaf52;"/><path d="m579.09,470.26c-3.68,1.75-7.06,3.93-10.17,6.43,33.51,6.65,67.36,34.45,86.99,75.59,3.33,7,6.09,14.06,8.32,21.14,8.89-6.96,17.05-15.32,23.77-25.39.47-.7,1.33-1.05,2.16-.86.02,0,.14.03.31.07-1.95-7.14-4.58-14.32-7.96-21.39-22.52-47.2-68.83-72.09-103.42-55.58Z" style="fill:#ffc688;"/><path d="m703.04,556.72c-36.75,53.49-106.51,66.8-138.17,70.12,28.83,35.38,70.25,51.08,102.86,35.53,33.37-15.92,47.11-59.61,36.41-105.44-.41-.07-.78-.14-1.1-.2Z" style="fill:#fcaf52;"/><path d="m703.8,557.07c.11,0,.26,0,.38,0-.01-.05-.02-.1-.03-.15-.41-.07-.78-.14-1.1-.2-36.75,53.49-106.51,66.8-138.17,70.12,6.51,7.99,13.66,14.96,21.2,20.81,32.74-10.15,92.37-35.54,117.72-90.57Z" style="fill:#c67926;"/><path d="m559.98,582.87c-16.11-28.67-22.75-59.29-20.64-86.29-11.65,27.58-10.2,65.02,6.67,100.37,26.51,55.56,81,84.85,121.72,65.42,3.72-1.78,7.2-3.91,10.43-6.34-41.25,5.81-89.88-22.75-118.18-73.16Z" style="fill:#d3873c;"/><path d="m556.76,609.07c-5.23-6.28-9.89-12.79-13.99-19.44,1.01,2.44,2.08,4.88,3.24,7.31,26.51,55.56,81,84.85,121.72,65.42.03-.01.06-.03.09-.04-36.28,3.9-79.58-15.41-111.07-53.25Z" style="fill:#9b5510;"/><path d="m702.84,551.76c.48,1.73.92,3.44,1.31,5.16-.42-.06-.8-.15-1.12-.21-36.73,53.47-106.51,66.81-138.17,70.14-1.2-1.45-2.37-2.93-3.5-4.49,29.44-2.7,101.93-14.87,138.58-69.66.55-.82,1.56-1.23,2.52-1.02.04,0,.16.03.37.08Z" style="fill:#4b382d;"/><path d="m508.6,532.31s-19.92-59.15,37.24-101.33c0,0,5.92-7.14-4.78-11.44-10.69-4.3-27.57-7.59-27.57-7.59,0,0-11.21,6.7-15.74,15.47-4.53,8.77-47.39,66.98,10.85,104.88Z" style="fill:#aa4f57;"/><path d="m541.07,419.54c-1.23-.49-2.54-.97-3.9-1.44,6.79,4.29,2.06,10.05,2.06,10.05-50.27,37.09-40.93,87.28-37.95,98.86,2.25,1.8,4.68,3.57,7.33,5.29,0,0-19.92-59.15,37.24-101.33,0,0,5.92-7.14-4.78-11.44Z" style="fill:#9f283c;"/><path d="m504.1,429.09c4.53-8.77,15.74-15.47,15.74-15.47,0,0,4.4.86,10.11,2.27-8.46-2.37-16.45-3.93-16.45-3.93,0,0-11.21,6.7-15.74,15.47-4.53,8.77-47.39,66.98,10.85,104.88,0,0-.43-1.31-.99-3.64-47.07-37.8-7.84-91.21-3.52-99.58Z" style="fill:#db7f85;"/><path d="m714.86,381.67s-39.72-29.05-85.04,3.88c0,0-6.77,2.75-7.46-6.32-.69-9.06.86-22.53.86-22.53,0,0,7.71-6.83,15.38-8.15,7.67-1.32,61.63-19.68,76.26,33.12Z" style="fill:#aa4f57;"/><path d="m622.36,379.23c-.08-1.04-.12-2.14-.15-3.28,1.61,6.13,7.06,3.94,7.06,3.94,39.85-28.96,75.36-9.99,83.35-4.99.82,2.11,1.57,4.37,2.24,6.76,0,0-39.72-29.05-85.04,3.88,0,0-6.77,2.75-7.46-6.32Z" style="fill:#9f283c;"/><path d="m638.34,353.72c-7.67,1.32-15.38,8.15-15.38,8.15,0,0-.4,3.51-.7,8.14.23-6.93.96-13.3.96-13.3,0,0,7.71-6.83,15.38-8.15,7.67-1.32,61.63-19.68,76.26,33.12,0,0-.88-.64-2.5-1.61-17.22-44.39-66.7-27.6-74.03-26.35Z" style="fill:#db7f85;"/><path d="m561.55,631.42s-38.65,34.69-8.86,76.66c29.79,41.97-53.46,55.6-58.23-11.58-4.76-67.18,55.4-72.73,67.09-65.07Z" style="fill:#0bb0e2;"/><path d="m561.55,631.42c-.48-.31-1.06-.59-1.7-.86-5.33,4.39-39.57,34.91-14.82,76.74,13.35,22.57-1.32,35.57-19.28,34.42,22.09,6.44,44.76-8.52,26.93-33.64-29.79-41.97,8.86-76.66,8.86-76.66Z" style="fill:#009bbf;"/><path d="m508.86,691.47c-1.65-23.31,6.29-37.51,16.68-45.67-14.38,6.39-28,21.31-25.89,51.19,2.81,39.53,38.92,44.77,49.71,31.77-14.87,3.94-38.27-5.77-40.51-37.29Z" style="fill:#54dcfc;"/><path d="m815.2,499.68s40.06-5.53,50.02,33.29c9.96,38.81,59.93-3.81,22.4-40.44-37.53-36.62-71.09-3.65-72.42,7.15Z" style="fill:#0bb0e2;"/><path d="m815.2,499.68c.05-.44.18-.93.34-1.44,5.29-.96,40.65-5.96,53.07,29.79,6.7,19.28,21.81,17.11,30.16,5.85-7.29,16.37-27.58,22.32-33.54-.91-9.97-38.81-50.02-33.29-50.02-33.29Z" style="fill:#009bbf;"/><path d="m877.39,498.56c-13.02-12.71-25.46-15.13-35.53-13.05,11.03-5.33,26.75-5.93,43.45,10.36,22.09,21.55,7.03,45.64-6.12,45.52,9.82-6.86,15.81-25.65-1.79-42.83Z" style="fill:#54dcfc;"/><path d="m108.86,371.89c-1.66-1.19-3.32-2.39-5.05-3.47.27-.16.53-.32.8-.48-1.32-.62-2.64-1.23-3.95-1.84-1.1-.5-2.18-.99-3.27-1.48-.9-.4-1.79-.8-2.68-1.19-1.1-.48-2.19-.95-3.27-1.41-1.51-.64-3-1.26-4.48-1.85-.75-.3-1.49-.59-2.23-.88-1.41-.55-2.8-1.08-4.17-1.58-.41-.15-.82-.31-1.23-.46-1.74-.63-3.44-1.19-5.1-1.73-.35-.11-.69-.22-1.04-.32-4.08-.3-7.81-1.31-11.08-3.13-28.87-16.13-12.36-87.39,36.86-159.17,49.22-71.78,112.53-116.9,141.39-100.77,3.39,1.68,6.78,3.24,10.18,4.74.83.37,1.67.73,2.5,1.09,3.06,1.32,6.11,2.59,9.16,3.79.27.1.52.22.79.32,7.35,2.88,14.65,5.45,21.81,7.83,1,.34,2.01.68,3.02,1.02.82.27,1.62.52,2.44.78,53.79-46.45,103.78-68.21,132.39-52.22,48.06,26.85,17.71,149.71-67.81,274.4-85.51,124.7-193.8,204.01-241.86,177.15-29.94-16.72-29.41-70.71-4.13-139.15Z" style="fill:#191818; mix-blend-mode:multiply; opacity:.1;"/><path d="m270.59,102.31c-1.02.9-2.01,1.78-3,2.65-1.16,1.03.35,2.94,1.54,1.92,1.4-1.2,2.81-2.41,4.21-3.62,2.42.79,4.87,1.52,7.2,2.3-.68.66-1.38,1.3-2.05,1.97-1.01,1,.78,2.77,1.88,1.79,1.01-.91,2.05-1.81,3.07-2.72,3.92,1.45,7.84,2.93,11.72,4.48-.05.06-.11.12-.15.18-.73.89.69,1.97,1.5,1.11.16-.17.33-.33.49-.5,3.4,1.4,6.79,2.81,10.09,4.38.83.39,1.67.8,2.51,1.2-7.48,7.86-13.57,16.4-17.33,25.19-.47,1.1,1.19,2.21,2.03,1.13,6.51-8.35,12.79-16.48,19.87-24.06,2.59,1.32,5.18,2.72,7.67,4.24-8.62,8.6-16.17,18.13-22.17,27.79-.43.7.51,1.51,1.13.84,8.05-8.79,15.56-18.18,23.9-26.79,3.26,2.21,6.22,4.66,8.6,7.41-.51.58-1,1.17-1.51,1.76-.55.63.49,1.41,1.1.81.46-.46.92-.92,1.38-1.38,4.08,5.22,6.09,11.51,4.18,19.35-.07.3,0,.58.11.83-3.28,4.82-6.43,9.67-9.21,14.58-.33.58.75,1.25,1.12.63,2.88-4.77,6.11-9.49,9.47-14.19.59.12,1.22-.03,1.6-.61.98-1.49,1.6-2.97,2.04-4.44,15.84-21.68,33.06-43.47,31.27-69.83-.06-.94-1.1-1.36-1.98-1.13-20.55,5.18-43.77,18.51-60.73,35.3-4.13-2-8.36-3.84-12.64-5.58,11.24-11.6,23.49-22.74,36.86-32.06,12.93-9.01,40.48-26.76,53.52-11.18,12,14.34.69,37.01-6.75,52.44-10.54,21.85-23.42,42.74-36.22,63.6-29.12,47.46-46.38,99.29-74.33,147.26-21.5,36.91-52.25,78.86-90.59,102.84-17.05,10.67-38.09,15.7-47.61-4.12-9.85-20.5-4.57-43.58,2.68-65.61,4.14,1.29,8.38,2.3,12.68,3-1.39,5.48-2.49,10.96-3.23,16.4-1.33,9.87-4.46,32.11,9.18,35.61,7.93,2.03,16.65-2.55,23.27-6.96,14.06-9.37,26.77-21.12,38.23-33.21,19.72-20.8,36.66-43.78,48.92-68.72,1.51-1.6,2.99-3.21,4.43-4.82.79-.88-.25-2.05-1.28-1.89,2.24-4.97,4.36-9.99,6.2-15.11.32-.9-1.12-1.62-1.53-.63-2.65,6.29-5.58,12.51-8.7,18.65-11.4,9.13-22.5,19.08-34.25,28.06.14-.21.28-.43.42-.64.47-.71-.64-1.61-1.15-.86-.96,1.4-1.93,2.81-2.9,4.22-11.43,8.41-23.55,15.74-37.26,20.36-11.35,3.83-23.31,5.56-34.81,4.3,3.41-12.44,7.75-24.93,13.64-36.46.32-.62-.77-1.32-1.18-.67-7.11,11.31-12.63,23.8-16.42,36.53-2.87-.5-5.71-1.13-8.49-2.05-1.24-.41-2.45-.89-3.68-1.34,1.71-4.98,3.46-9.89,5.09-14.67.49-1.43-1.64-2.49-2.42-.97-2.28,4.48-4.46,9.25-6.45,14.18-4.34-1.82-8.5-3.94-12.45-6.38,4.68-15.3,10.63-30.23,18.29-43.74.57-1.02-1.24-2.14-1.94-1.08-8.76,13.25-14.75,27.96-19.41,42.85-.41-.28-.84-.52-1.24-.8-4.15-2.93-7.88-6.47-11.89-9.65,1.79-4.92,3.65-9.81,5.66-14.61.68-1.61-1.87-2.79-2.73-1.09-2.19,4.35-4.13,8.87-5.96,13.45-2-1.39-4.09-2.64-6.37-3.63,15.21-35.45,36.38-73.85,62.84-112.44,32.52-47.42,68.33-88.25,102.87-119.2.04.06.06.13.13.17,2.18,1.54,4.73,2.68,7.41,3.66Z" style="fill:#f2d3a0;"/><path d="m177.23,391.7c-4.3,2.78-10.97,9.05-7.87.39,3.27-9.13,7.61-17.95,10.9-27.06,2.4-.5,4.79-1.09,7.12-1.84,10.66-3.38,20.93-8.36,30.71-14.36-8.75,12.12-18.23,23.94-29.5,33.85-3.61,3.17-7.29,6.38-11.36,9.02Z" style="fill:#f2d3a0;"/><path d="m178.37,365.36c-5.77,10.63-10.22,21.93-13.37,33.29-.22.8.49,1.92,1.52,1.46,24.1-10.82,41.02-32.49,55.45-53.71,13.75-8.93,26.44-19.84,37.72-31.17-10.17,18.21-22.37,35.53-36.6,51.34-10.7,11.88-22.16,23.24-34.77,33.36-7.21,5.79-19.45,16.51-29.63,15.16-16.39-2.18-9-31.84-6.61-42.12.53-2.29,1.1-4.59,1.68-6.9,8.21.96,16.52.75,24.6-.72Z" style="fill:#f2d3a0;"/><path d="m95.65,334.16c1.64,2.26,3.46,4.44,5.41,6.52-6.57,18.37-10.75,37.91-13.78,56.21-3.46,20.91-6.45,45.72,2.46,65.02,18.67,40.47,70.91,19.46,100.91-2.4,50.41-36.74,88.73-86.97,119.84-138.27,34.4-56.73,63.54-116.64,89.35-176.75,12.82-29.86,37.05-91-10.72-101.35-42.25-9.16-84.83,29.13-115.5,56.47-3.19-1.01-6.42-1.76-9.61-1.98,55.94-49.86,108.43-73.67,138.05-57.11,48.07,26.85,17.71,149.71-67.8,274.41-85.51,124.7-193.8,204.01-241.86,177.15-32.63-18.23-29.09-80.69,3.26-157.92Z" style="fill:#f2d3a0;"/><path d="m326.76,62.48c21.22-12.94,52.17-27.38,74.31-11.74,22.4,15.82,12.99,48.86,4.78,71.3-9.29,25.4-21.38,50.13-33.03,74.78-31.02,65.64-64.35,132.28-111.51,190.17-18.25,22.4-38.52,43.94-61.61,62.14-20.95,16.52-49.84,36.64-77.87,33.13-36.24-4.54-36.73-45.02-33.09-72.8,2.87-21.87,8.02-44.23,15.29-65.8,4.06,3.82,8.62,7.29,13.61,10.26-1.28,4.51-2.49,9.02-3.6,13.5-6.25,25.13-11.63,52.92-5.33,77.66,15.97,62.66,102.19-8.35,125.03-34.06,40.24-45.31,67.76-99.07,93.2-151.93,11.09-23.04,21.26-46.58,33.39-69.23,9.25-17.28,19.78-34.01,28.55-51.5,12.05-24.04,36.43-74.75-2.25-85.51-17.96-5-39.71,5.18-55.29,14.26-17.42,10.16-33.68,22.31-48.21,36-2.17-.85-4.39-1.72-6.64-2.52,15.93-13.63,32.26-27.12,50.28-38.1Z" style="fill:#f2d3a0;"/><path d="m354.96,89.38c4.15-1.99,8.37-3.98,12.77-5.37,5.05-1.59,4.83,1.52,4.37,5.6-2.36,20.84-15.26,38.88-27.82,56.77,0-5.39-2.98-10.45-7.14-14.85,9.2-9.46,17.33-19.53,22.53-31.38.42-.95-.66-2.14-1.73-1.67-12.28,5.4-23.63,13.51-33.59,22.96-1.21-.75-2.4-1.45-3.5-2.05-1.39-.77-2.81-1.47-4.23-2.2,4.17-4.25,8.62-8.32,13.6-12.11,7.75-5.88,15.89-11.46,24.74-15.71Z" style="fill:#f2d3a0;"/><path d="m341.06,65.56c17.94-8.86,52.94-20.13,61.29,3.94,6.54,18.88-4.29,42.35-12.9,60.26-8.91,18.53-19.65,36.22-29.65,54.29-26.28,47.5-45.63,97.71-72.75,144.95-28.43,49.51-65.97,106.92-123.05,131.29-16.45,7.02-38.27,11.54-47.47-5.64-7.85-14.68-7.19-33.25-5.25-49.77,1.85-15.83,4.95-32.66,9.53-49.23,3.89,2.1,7.96,3.93,12.18,5.47-6.09,16.92-9.65,35.33-7.16,51.41,1.92,12.36,7.91,28.46,22.13,32.13,28.75,7.42,60.78-28.04,77.71-46.39,39.63-42.94,64.52-92.86,87.56-144.23,9.78-21.8,19.41-42.82,32.02-63.45,11.84-19.38,24.01-38.67,34.47-58.69,8.41-16.1,17.99-34.16,18.33-51.99.2-10.88-8.17-21.95-20.38-22.36-16.32-.54-32.36,9.6-45.08,19.04-12.71,9.43-24.99,19.97-35.18,31.88-3.02-1.19-6.06-2.33-9.13-3.41-.71-.25-1.43-.52-2.16-.8,16.73-14.64,34.86-28.79,54.94-38.7Z" style="fill:#f2d3a0;"/><path d="m355.75,102.62c-2.32,4.59-4.88,9.03-8.05,13.2-3.77,4.94-7.78,9.71-11.85,14.44-2.68-2.61-5.69-4.96-8.64-6.96,4.74-4.7,9.76-9.14,15.36-13.03,1.9-1.32,13.06-7.41,13.18-7.64Z" style="fill:#f2d3a0;"/><path d="m273.62,99.62c-3.19-1.01-6.42-1.76-9.61-1.98-.13,0-.27-.05-.4-.06-.57-.03-.81.52-.55.89.04.06.06.13.13.17,2.18,1.54,4.73,2.68,7.41,3.66-1.02.9-2.01,1.78-3,2.65-1.16,1.03.35,2.94,1.54,1.92,1.4-1.2,2.81-2.41,4.21-3.62,2.42.79,4.87,1.52,7.2,2.3-.68.66-1.38,1.3-2.05,1.97-1.01,1,.78,2.77,1.88,1.79,1.01-.91,2.05-1.81,3.07-2.72,3.92,1.45,7.84,2.93,11.72,4.48-.05.06-.11.12-.15.18-.73.89.69,1.97,1.5,1.11.16-.17.33-.33.49-.5,3.4,1.4,6.79,2.81,10.09,4.38.83.39,1.67.8,2.51,1.2-7.48,7.86-13.57,16.4-17.33,25.19-.47,1.1,1.19,2.21,2.03,1.13,6.51-8.35,12.79-16.48,19.87-24.06,2.59,1.32,5.18,2.72,7.67,4.24-8.62,8.6-16.17,18.13-22.17,27.79-.43.7.51,1.51,1.13.84,8.05-8.79,15.56-18.18,23.9-26.79,3.26,2.21,6.22,4.66,8.6,7.41-.51.58-1,1.17-1.51,1.76-.55.63.49,1.41,1.1.81.46-.46.92-.92,1.38-1.38,4.08,5.22,6.09,11.51,4.18,19.35-.07.3,0,.58.11.83-3.28,4.82-6.43,9.67-9.21,14.58-.33.58.75,1.25,1.12.63,2.88-4.77,6.11-9.49,9.47-14.19.59.12,1.22-.03,1.6-.61.98-1.49,1.6-2.97,2.04-4.44,15.84-21.68,33.06-43.47,31.27-69.83-.06-.94-1.1-1.36-1.98-1.13-20.55,5.18-43.77,18.51-60.73,35.3-4.13-2-8.36-3.84-12.64-5.58,11.24-11.6,23.49-22.74,36.86-32.06,12.93-9.01,40.48-26.76,53.52-11.18,12,14.34.69,37.01-6.75,52.44-10.54,21.85-23.42,42.74-36.22,63.6-29.12,47.46-46.38,99.29-74.33,147.26-21.5,36.91-52.25,78.86-90.59,102.84-17.05,10.67-38.09,15.7-47.61-4.12-9.85-20.5-4.57-43.58,2.68-65.61,4.14,1.29,8.38,2.3,12.68,3-1.39,5.48-2.49,10.96-3.23,16.4-1.33,9.87-4.46,32.11,9.18,35.61,7.93,2.03,16.65-2.55,23.27-6.96,14.06-9.37,26.77-21.12,38.23-33.21,19.72-20.8,36.66-43.78,48.92-68.72,1.51-1.6,2.99-3.21,4.43-4.82.79-.88-.25-2.05-1.28-1.89,2.24-4.97,4.36-9.99,6.2-15.11.32-.9-1.12-1.62-1.53-.63-2.65,6.29-5.58,12.51-8.7,18.65-11.4,9.13-22.5,19.08-34.25,28.06.14-.21.28-.43.42-.64.47-.71-.64-1.61-1.15-.86-.96,1.4-1.93,2.81-2.9,4.22-11.43,8.41-23.55,15.74-37.26,20.36-11.35,3.83-23.31,5.56-34.81,4.3,3.41-12.44,7.75-24.93,13.64-36.46.32-.62-.77-1.32-1.18-.67-7.11,11.31-12.63,23.8-16.42,36.53-2.87-.5-5.71-1.13-8.49-2.05-1.24-.41-2.45-.89-3.68-1.34,1.71-4.98,3.46-9.89,5.09-14.67.49-1.43-1.64-2.49-2.42-.97-2.28,4.48-4.46,9.25-6.45,14.18-4.34-1.82-8.5-3.94-12.45-6.38,4.68-15.3,10.63-30.23,18.29-43.74.57-1.02-1.24-2.14-1.94-1.08-8.76,13.25-14.75,27.96-19.41,42.85-.41-.28-.84-.52-1.24-.8-4.15-2.93-7.88-6.47-11.89-9.65,1.79-4.92,3.65-9.81,5.66-14.61.68-1.61-1.87-2.79-2.73-1.09-2.19,4.35-4.13,8.87-5.96,13.45-2-1.39-4.09-2.64-6.37-3.63-.03-.01-.06-.03-.09-.05-2.05-.88-3.42,1.56-2.41,3.03.25.36.54.7.8,1.06,1.64,2.26,3.46,4.44,5.41,6.52-6.57,18.37-10.75,37.91-13.78,56.21-3.46,20.91-6.45,45.72,2.46,65.02,18.67,40.47,70.91,19.46,100.91-2.4,50.41-36.74,88.73-86.97,119.84-138.27,34.4-56.73,63.54-116.64,89.35-176.75,12.82-29.86,37.05-91-10.72-101.35-42.25-9.16-84.83,29.13-115.5,56.47Zm-55.52,249.21c-8.75,12.12-18.23,23.94-29.5,33.85-3.61,3.17-7.29,6.38-11.36,9.02-4.3,2.78-10.97,9.05-7.87.39,3.27-9.13,7.61-17.95,10.9-27.06,2.4-.5,4.79-1.09,7.12-1.84,10.66-3.38,20.93-8.36,30.71-14.36Zm-64.32,17.25c8.21.96,16.52.75,24.6-.72-5.77,10.63-10.22,21.93-13.37,33.29-.22.8.49,1.92,1.52,1.46,24.1-10.82,41.02-32.49,55.45-53.71,13.75-8.93,26.44-19.84,37.72-31.17-10.17,18.21-22.37,35.53-36.6,51.34-10.7,11.88-22.16,23.24-34.77,33.36-7.21,5.79-19.45,16.51-29.63,15.16-16.39-2.18-9-31.84-6.61-42.12.53-2.29,1.1-4.59,1.68-6.9Zm162.86-248.89c4.17-4.25,8.62-8.32,13.6-12.11,7.75-5.88,15.89-11.46,24.74-15.71,4.15-1.99,8.37-3.98,12.77-5.37,5.05-1.59,4.83,1.52,4.37,5.6-2.36,20.84-15.26,38.88-27.82,56.77,0-5.39-2.98-10.45-7.14-14.85,9.2-9.46,17.33-19.53,22.53-31.38.42-.95-.66-2.14-1.73-1.67-12.28,5.4-23.63,13.51-33.59,22.96-1.21-.75-2.4-1.45-3.5-2.05-1.39-.77-2.81-1.47-4.23-2.2Zm25.95-6.93c1.9-1.32,13.06-7.41,13.18-7.64-2.32,4.59-4.88,9.03-8.05,13.2-3.77,4.94-7.78,9.71-11.85,14.44-2.68-2.61-5.69-4.96-8.64-6.96,4.74-4.7,9.76-9.14,15.36-13.03Zm-56.46-6.01c16.73-14.64,34.86-28.79,54.94-38.7,17.94-8.86,52.94-20.13,61.29,3.94,6.54,18.88-4.29,42.35-12.9,60.26-8.91,18.53-19.65,36.22-29.65,54.29-26.28,47.5-45.63,97.71-72.75,144.95-28.43,49.51-65.97,106.92-123.05,131.29-16.45,7.02-38.27,11.54-47.47-5.64-7.85-14.68-7.19-33.25-5.25-49.77,1.85-15.83,4.95-32.66,9.53-49.23,3.89,2.1,7.96,3.93,12.18,5.47-6.09,16.92-9.65,35.33-7.16,51.41,1.92,12.36,7.91,28.46,22.13,32.13,28.75,7.42,60.78-28.04,77.71-46.39,39.63-42.94,64.52-92.86,87.56-144.23,9.78-21.8,19.41-42.82,32.02-63.45,11.84-19.38,24.01-38.67,34.47-58.69,8.41-16.1,17.99-34.16,18.33-51.99.2-10.88-8.17-21.95-20.38-22.36-16.32-.54-32.36,9.6-45.08,19.04-12.71,9.43-24.99,19.97-35.18,31.88-3.02-1.19-6.06-2.33-9.13-3.41-.71-.25-1.43-.52-2.16-.8Zm-9.63-3.67c15.93-13.63,32.26-27.12,50.28-38.1,21.22-12.94,52.17-27.38,74.31-11.74,22.4,15.82,12.99,48.86,4.78,71.3-9.29,25.4-21.38,50.13-33.03,74.78-31.02,65.64-64.35,132.28-111.51,190.17-18.25,22.4-38.52,43.94-61.61,62.14-20.95,16.52-49.84,36.64-77.87,33.13-36.24-4.54-36.73-45.02-33.09-72.8,2.87-21.87,8.02-44.23,15.29-65.8,4.06,3.82,8.62,7.29,13.61,10.26-1.28,4.51-2.49,9.02-3.6,13.5-6.25,25.13-11.63,52.92-5.33,77.66,15.97,62.66,102.19-8.35,125.03-34.06,40.24-45.31,67.76-99.07,93.2-151.93,11.09-23.04,21.26-46.58,33.39-69.23,9.25-17.28,19.78-34.01,28.55-51.5,12.05-24.04,36.43-74.75-2.25-85.51-17.96-5-39.71,5.18-55.29,14.26-17.42,10.16-33.68,22.31-48.21,36-2.17-.85-4.39-1.72-6.64-2.52Z" style="fill:#f2e3cc;"/><path d="m150.45,384.29c28.86,16.13,97-37.25,146.23-109.03,49.23-71.78,65.73-143.04,36.87-159.17-27.57-15.41-71.25-21.86-113.76-42.92-3.32-1.65-25.43,140.47-27.64,143.69-3.73,5.43-150.98,116.26-144.87,117.84,29.11,7.49,76.49,34.69,103.17,49.6Z" style="fill:#ccc08f;"/><path d="m113.65,373.96c-4.1-4.37-8.83-8.28-13.49-11.92,1.32-1.01,2.59-2.08,3.89-3.12,5.59,2.9,11.11,5.84,16.45,8.75-2.29,2.09-4.6,4.17-6.85,6.29Z" style="fill:none;"/><path d="m96.04,358.79c-4.07-3.22-8.32-6.52-12.82-9.34.27-.16.54-.33.81-.49,4.96,2.34,9.99,4.82,15,7.38-1.01.8-1.98,1.65-2.99,2.45Z" style="fill:none;"/><path d="m247.29,151.38c-11.32,24.27-24.15,48.91-39.14,71.57-17.76,26.83-38.79,51.97-63.06,74.11-20.31,18.54-42.48,34.22-64.92,50.13-12-5.51-23.42-10.05-32.89-12.49-6.11-1.57,141.15-112.4,144.87-117.84,2.21-3.22,24.31-145.34,27.64-143.69,14.93,7.4,29.97,12.95,44.43,17.77-.72,20.65-7.79,40.84-16.93,60.44Z" style="fill:#ccc08f;"/><path d="m270.17,181.86c-11.51,28.1-27.67,54.57-46.69,79.2-19.27,24.96-40.85,48.34-63.65,70.61-12.59,12.3-26.19,23.99-39.33,35.99-5.34-2.9-10.86-5.85-16.45-8.75,10-7.99,19.5-16.7,29.18-24.96,28.67-24.43,57.8-49.56,80.33-79.24,19.2-25.31,34.14-53.8,46.01-82.38,9.92-23.89,20.2-50.81,20.25-76.34,2.13.67,4.18,1.31,6.26,1.97-.62,28.54-4.58,56.22-15.91,83.89Z" style="fill:#ccc08f;"/><path d="m198.5,265.76c-25.62,29.03-55.77,53.85-85.46,79.11-4.65,3.95-9.32,7.72-14.01,11.48-5.02-2.55-10.05-5.04-15-7.38,55.09-32.01,103.19-82.18,134.29-134.42,13.63-22.89,27.05-46.87,36.93-71.22,6.46-15.93,12.9-34.01,12.6-51.16,2.97.97,5.88,1.89,8.78,2.81-8.89,59.6-35.91,122.95-78.13,170.78Z" style="fill:#ccc08f;"/><path d="m240.72,261.74c33.55-44,68.68-103.64,63.16-158.02,2.75.93,5.49,1.86,8.11,2.82,7.9,2.9,15.17,5.98,21.56,9.55,28.86,16.13,12.36,87.39-36.87,159.17-49.23,71.78-117.36,125.16-146.23,109.03-4.65-2.6-9.97-5.59-15.68-8.77-2.53-1.41-5.17-2.87-7.85-4.35,16.52-12.53,33.11-24.84,48.48-38.89,23.79-21.77,46.02-45.22,65.31-70.54Z" style="fill:#ccc08f;"/><path d="m284.38,181.31c-12.63,29.69-30.25,57.66-50.87,83.5-24.8,31.08-53.2,57.75-83.55,83.02,5.36-5.3,10.64-10.59,15.88-15.79,23.37-23.19,45.84-47.41,65.16-73.63,34.33-46.56,62.78-103.53,58.87-159.26,3.6,1.13,7.12,2.27,10.56,3.4-.86,26.94-4.91,52.58-16.04,78.76Z" style="fill:#ccc08f;"/><path d="m277.34,90.32c.19-1.41,2.38-1.24,2.46.04.12,1.86.03,3.75.02,5.63-1.05-.33-2.14-.69-3.2-1.02.23-1.55.5-3.11.71-4.65Z" style="fill:#e0d6af;"/><path d="m286.21,91.34c.01-1.74,2.8-1.44,2.98.04.32,2.59.49,5.18.67,7.78-1.24-.39-2.52-.8-3.78-1.19.05-2.21.12-4.41.13-6.63Z" style="fill:#e0d6af;"/><path d="m300.62,94.66c.01-1.23,1.84-.91,2.02.04.57,2.99.93,6,1.23,9.03-1.15-.39-2.29-.78-3.45-1.17.08-2.62.17-5.25.19-7.9Z" style="fill:#e0d6af;"/><path d="m255.25,143.32c-9.87,24.36-23.3,48.33-36.93,71.22-31.1,52.25-79.2,102.41-134.29,134.42-1.29-.61-2.57-1.19-3.86-1.78,22.44-15.9,44.61-31.59,64.92-50.13,24.27-22.15,45.3-47.28,63.06-74.11,14.99-22.65,27.81-47.3,39.14-71.57,9.14-19.6,16.2-39.79,16.93-60.44,1.21.4,2.44.83,3.63,1.22.3,17.15-6.14,35.22-12.6,51.16Z" style="fill:#e0d6af;"/><path d="m159.84,331.67c22.79-22.27,44.37-45.65,63.65-70.61,19.02-24.63,35.18-51.1,46.69-79.2,11.33-27.67,15.29-55.36,15.91-83.89,1.26.39,2.54.8,3.78,1.19,3.91,55.73-24.55,112.7-58.87,159.26-19.33,26.21-41.79,50.43-65.16,73.63-5.23,5.19-10.52,10.49-15.88,15.79,30.35-25.26,58.76-51.93,83.55-83.02,20.62-25.84,38.24-53.81,50.87-83.5,11.13-26.18,15.18-51.82,16.04-78.76,1.17.39,2.31.78,3.45,1.17,5.52,54.38-29.61,114.02-63.16,158.02-19.3,25.31-41.53,48.77-65.31,70.54-15.37,14.06-31.96,26.37-48.48,38.89-2.1-1.16-4.24-2.33-6.41-3.51,13.15-12.01,26.74-23.7,39.33-35.99Z" style="fill:#e0d6af;"/><path d="m259.58,172.34c-11.87,28.58-26.81,57.07-46.01,82.38-22.53,29.69-51.66,54.82-80.33,79.24-9.69,8.25-19.19,16.96-29.18,24.96-1.67-.87-3.34-1.72-5.02-2.58,4.69-3.76,9.36-7.53,14.01-11.48,29.69-25.26,59.83-50.08,85.46-79.11,42.22-47.83,69.25-111.17,78.13-170.78,1.06.34,2.15.69,3.2,1.02-.05,25.53-10.33,52.45-20.25,76.34Z" style="fill:#e0d6af;"/><path d="m311.98,106.55c7.9,2.9,15.17,5.98,21.56,9.55,28.86,16.13,12.36,87.39-36.87,159.17-49.23,71.78-117.36,125.16-146.23,109.03-4.65-2.6-9.97-5.59-15.68-8.77,93.88-69.51,174.22-160.24,177.21-268.97Z" style="fill:#38373e;"/><path d="m41.53,333.1c28.86,16.13,92.17-28.99,141.39-100.76,49.23-71.78,65.73-143.04,36.87-159.17-28.87-16.13-92.17,28.98-141.39,100.77C29.17,245.71,12.66,316.97,41.53,333.1Z" style="fill:#f2d3a0;"/><path d="m48.78,264.49c11.62-52.21,46.48-101.9,84.35-142.46,14.77-15.82,35.28-37.94,57.59-43.39,26.09-6.38,23.11,27.69,19.25,42.58-9.3,35.84-34.82,69.99-57.29,100.38-11.49,15.53-23.08,31.15-35.68,45.95-12.24,14.39-27.12,29.69-46.08,35.52-1.45.44-2.53-.35-2.86-1.6-10.98-41.36,13.21-87.37,37.03-123.41,10.65-16.11,22.53-32.07,34.41-47.46,8.4-10.89,22.81-30.32,39.06-28.14,27.81,3.73-7.4,59.56-13.19,70.81-9.25,17.95-17.64,36.07-28.57,53.32-10.96,17.29-25.95,36.95-47.31,43.16-.9.26-1.83.09-2.37-.63-3.24-4.29,2.7-17.25,4.08-22.22,3.95-14.19,8.81-28.14,14.7-41.85,10.39-24.17,25.04-49.43,47.95-65.6,20-14.12,7.63,24.83,4.84,31.77-10.33,25.77-29.3,48.67-45.95,71.36-1.02,1.39-3.01-.25-2.15-1.58,15.27-23.58,33.64-45.55,44.69-71.13,2.77-6.41,4.61-13.04,5.7-19.77.92-5.71,2.87-12.64-4.76-7.72-12.83,8.28-22.35,20.84-30.37,33.05-16.78,25.51-27.6,55.42-33.96,84.07-1.59,7.15-3.5,6.98,3.56,3.83,6.74-3.01,12.66-8.24,17.8-13.23,11.08-10.75,19.48-24.02,27.08-36.94,10.71-18.2,19.44-37.35,29.17-55.97,4.54-8.69,29.39-60.86.25-49.4-11.15,4.38-19.81,16.54-26.75,25.32-6.53,8.26-12.23,17.02-18.48,25.45-16.88,22.74-32.06,45.97-42.97,71.55-9.34,21.92-14.98,45.96-9.85,68.41,27.65-9.77,46.89-38.6,63.2-60.27,15.3-20.33,30.5-40.59,43.97-61.97,13.87-22.03,28.61-47.38,29.57-72.77.28-7.35-.42-19.44-9.71-21.17-7.34-1.37-16.31,4.32-22.24,8.07-37.4,23.64-66.64,64.22-89.54,99.26-17.84,27.31-30.91,57.14-35.72,88.2-1.64,10.58-2.29,21.73.94,31.77,4.65,14.44,20.1,12.34,32.87,7.08,20.26-8.35,37.19-25.2,51.34-40.79,17.83-19.64,32.61-41.73,45.56-64.24,21.85-37.95,43.92-84.76,40.83-127.36-.1-1.32,1.89-1.42,2.02-.21,4.47,41.99-17.44,88.26-38.43,125.87-21.69,38.85-51.28,82.09-92.22,105.85-13.85,8.03-33.05,15.01-43.39,1.04-10.12-13.66-5.48-36.65-1.98-52.38Z" style="fill:#f2e3cc;"/><path d="m103.21,245.03c8.15-29.72,21.6-59.92,44.46-83.23.9-.92,2.38-.04,1.95,1.09-6.82,18.09-15.7,35.64-25.08,52.83-.28.51-1.03.14-.83-.34,4.76-11.61,10.87-22.76,16.23-34.16,2.36-5.02,4.4-10.12,6.3-15.28-1.3,3.55-7.06,9-9.86,12.76-7.82,10.5-13.62,22.17-18.78,33.85-2.65,6-4.94,12.12-7.27,18.21-.85,2.23-7.4,16.85-1.91,11.02.31-.33.86.1.58.43-1.3,1.21-2.34,2.59-3.13,4.11-.15.24-.48.24-.7.17-.5-.16-1.01-.33-1.51-.49-.42-.14-.55-.6-.44-.98Z" style="fill:#f2e3cc;"/></g></g></svg>