<?xml version="1.0" encoding="UTF-8"?><svg xmlns="http://www.w3.org/2000/svg" viewBox="0 0 1400 1700"><g style="isolation:isolate;"><g id="Capa_1"><ellipse cx="700" cy="1522.67" rx="505.1" ry="139.73" style="fill:#d7dadb; opacity:.44;"/><path d="m949.32,1165.4c5.85-.52,10.35-5.52,10.17-11.46l-10.46-352.08c-.18-6.17-5.33-11.02-11.5-10.84-6.18.2-11.02,5.33-10.83,11.5l10.46,352.09c.19,6.16,5.33,11.02,11.5,10.83.22,0,.45-.02.67-.04Z" style="fill:#9f283c;"/><path d="m950.58,1154.73l-10.46-352.08c-.14-4.8-3.31-8.77-7.61-10.22,1.5-.82,3.18-1.35,5.01-1.41,6.17-.18,11.32,4.67,11.5,10.84l10.46,352.08c.18,5.95-4.32,10.94-10.17,11.46-.22.02-.45.04-.67.04-1.36.04-2.65-.2-3.86-.61,3.55-1.96,5.93-5.76,5.8-10.1Z" style="fill:#db7f85;"/><path d="m848.78,1317.03c.73.38,1.48.72,2.22.97,4.44,1.54,8.91.8,12.69-.61,3.52-1.33,6.42-3.27,8.15-4.56h.02c1.05-.79,1.67-1.36,1.67-1.36,0,0,.11.73.31,2.01v.02c.95,5.82,4.08,22.88,9.93,33.51,1.72,3.17,3.7,5.78,5.93,7.33,9.81,6.89,22.55,8.9,34.92,5.59,1.95-.51,3.87-1.15,5.8-1.93,0,0,.69.41,1.91,1.05.63.3,1.43.66,2.34,1.06h.02c2.57,1.12,6.16,2.39,10.29,3.12,2.96.52,6.19.78,9.51.48,11.49-1.03,26.19-1.44,36.11-17.94,1.16-1.87,2.22-3.99,3.23-6.32,0,0,1.19,0,3.16-.28,1.71-.22,4.01-.65,6.62-1.44,3.06-.92,6.57-2.34,10.17-4.5,8.54-5.12,17.46-14.52,21.54-31.69,4.55-19.19,7.66-47.89,4.36-76.61-.1-.85-.2-1.71-.32-2.58-.22-1.73-.47-3.44-.73-5.14-.14-.86-.26-1.7-.43-2.57-.14-.86-.29-1.7-.45-2.56-.14-.8-.3-1.61-.46-2.4-.23-1.08-.46-2.16-.7-3.24-.14-.66-.29-1.34-.47-2-.19-.83-.4-1.66-.61-2.5-1.28-5.03-2.8-9.99-4.62-14.8-.29-.8-.61-1.6-.93-2.4-.31-.78-.64-1.58-.97-2.36-.31-.78-.65-1.53-.99-2.31-.03-.02-.03-.07-.05-.08-.65-1.45-1.33-2.89-2.05-4.3-.11-.24-.24-.5-.36-.76-.32-.58-.62-1.18-.94-1.76-.38-.73-.78-1.45-1.18-2.18-1.25-2.22-2.59-4.39-4.01-6.51-.93-1.39-1.91-2.79-2.93-4.14-.51-.67-1.02-1.35-1.55-1.99-.53-.67-1.06-1.32-1.61-1.97-.53-.65-1.08-1.29-1.65-1.92-.7-.79-1.44-1.6-2.18-2.36-.74-.78-1.51-1.57-2.29-2.31,0,0-.09-.98-.35-2.61v-.02s0-.09-.02-.14c-.06-.42-.15-.89-.21-1.39-.04-.17-.06-.35-.09-.53-.13-.68-.26-1.46-.43-2.27v-.06c-.15-.59-.27-1.23-.43-1.89-.21-.92-.45-1.86-.7-2.85-.09-.26-.16-.52-.22-.79-.23-.81-.46-1.62-.74-2.45-.13-.44-.28-.85-.43-1.26-.12-.42-.27-.85-.45-1.26-.15-.42-.3-.85-.47-1.26-.15-.44-.32-.85-.52-1.28-.17-.41-.37-.84-.56-1.25-.37-.84-.77-1.65-1.2-2.47-.22-.41-.43-.81-.67-1.22-.46-.78-.93-1.58-1.44-2.32-.2-.32-.41-.61-.62-.88-.39-.55-.79-1.05-1.22-1.55-.2-.25-.4-.48-.62-.7-1.37-1.54-2.93-2.9-4.66-3.96-.36-.22-.71-.43-1.09-.6-.57-.33-1.18-.61-1.78-.85-4.72-1.84-14.41-4.64-25.7-6.41-23.79-3.74-54.62-3.03-60.74,20.09-1.01,3.77-1.37,8.14-.91,13.19,0,0-.39.16-1.07.54-.02,0-.04,0-.07.03-.19.09-.43.2-.66.33-.02,0-.02.02-.05.02-.26.14-.53.28-.85.46-1.07.56-2.42,1.31-3.95,2.24-.45.27-.9.55-1.36.84-.47.29-.94.57-1.44.91-.48.31-1,.63-1.5.99-2.03,1.37-4.23,2.94-6.43,4.7-4.44,3.53-8.94,7.89-12.44,12.91-10.44,14.96-26.11,34.31-29.61,39.11-3.5,4.8-7.51,16.37-.11,36.46,7.41,20.1,9.25,34.52,5.59,43.82-3.66,9.3-9.96,26.69,1.81,32.93Z" style="fill:#eee;"/><path d="m1023.87,1217.27c8.26,37.52-2.36,94.32-10.1,115.94,8.54-5.12,17.46-14.52,21.54-31.69,8.97-37.82,12.38-112.73-28.12-151.75,0,0-2.63-29.49-18.91-35.9-4.72-1.84-14.41-4.64-25.7-6.41.62,7.98-.54,16.85-8.62,17.89-12.18,1.54-39.12.33-52.12,2.2-1.01,3.77-1.37,8.14-.91,13.19,0,0-8.58,3.99-17.39,11.06,8.2-.15,21.4-.36,30.12-.42,13.46-.08,100.77,22.98,110.21,65.89Z" style="fill:#cfcfcf;"/><path d="m996.98,1339.15c1.71-.22,4.01-.65,6.62-1.44,4.11-13.13,8.49-34.9,4.74-61.83,0,0-3.8,1.46-7.89-.42,0,0-15.05,13.68-37.6,12.33,0,0,2.73,57.51-17.89,75.43,2.96.52,6.19.78,9.51.48,11.49-1.03,26.19-1.44,36.11-17.94l6.39-6.6Z" style="fill:#cfcfcf;"/><path d="m932.31,1359.04c.63.3,1.43.66,2.34,1.06h.02c13.79-19.45,15.83-72.34,15.83-72.34l-4.75-2.94c-8.46,5.8-50.48.01-50.48.01,2.39,30.64-5.44,49.96-11.51,62.17,1.72,3.17,3.7,5.78,5.93,7.33,9.81,6.89,22.55,8.9,34.92,5.59l7.71-.88Z" style="fill:#cfcfcf;"/><path d="m851,1318c4.44,1.54,8.91.8,12.69-.61,3.52-1.33,6.42-3.27,8.15-4.56h.02c1.05-.79,1.67-1.36,1.67-1.36,0,0,.11.73.31,2.01,5.63-15.92,13.21-39.12,13.21-39.12-7.78-5.48-19.59-81.27-19.59-81.27-12.78,20.21,1.83,58.17,5.73,83.07,2.34,14.89-11.04,31.16-22.18,41.84Z" style="fill:#cfcfcf;"/><path d="m996.98,1339.15c7.78-21.65,4.25-61.34,4.25-61.34l-.77-2.36c.3,20.93-6.59,55.2-9.86,70.3l6.39-6.6Z" style="fill:#9d9b9c;"/><path d="m924.61,1359.92c5.16-6.76,13.29-24.76,20.24-72.59,0,0,.27,51.49-12.54,71.71l-7.71.88Z" style="fill:#9d9b9c;"/><path d="m1006.84,1147.13c-16.57-5.46-64.11-18.54-106.99-5.85-.48.14-.98.27-1.47.42,0,0,.25-.02.74-.06,7.88-.73,77.24-6.44,112.54,12.8l-4.82-7.31Z" style="fill:#9d9b9c;"/><path d="m863.69,1317.39c4.67-9.1,16.55-33.29,15.73-42.53,0,0-8.33-17.97-7.17-38.63,0,0,6.61,32.3,11.72,39.34l-12.11,37.25h-.02s-8.15,4.56-8.15,4.56Z" style="fill:#9d9b9c;"/><path d="m725.66,1385.03c-1.69,0-3.41-.29-5.09-.9-7.72-2.81-11.71-11.32-8.94-19.05.29-.85,17.23-51.32-11.43-123.73-3.03-7.66.72-16.33,8.38-19.36,7.66-3.03,16.32.72,19.36,8.38,33.19,83.85,12.64,142.38,11.76,144.83-2.2,6.06-7.92,9.83-14.02,9.83Z" style="fill:#9f283c;"/><path d="m727.92,1230.37c-2.97-7.49-11.31-11.22-18.84-8.56,3.92,1.39,7.24,4.38,8.9,8.56,33.19,83.85,12.64,142.38,11.76,144.83-1.59,4.37-5.02,7.52-9.08,8.95,1.66.59,3.34.88,5,.88,6.1,0,11.82-3.77,14.02-9.83.89-2.45,21.44-60.98-11.76-144.83Z" style="fill:#db7f85;"/><path d="m984.02,1478.45c-10.22,5.6-20.27,10.18-30.05,13.89-55.36,21.08-102.15,14.56-122.91,8.07-24.42-7.65-78.59-21.32-92.98-19.64-14.41,1.69-18.05-5.13-18.05-5.13-21.02-18.03-13.45-55.34-10.76-65.93.45-1.87.78-2.9.78-2.9-.48-.36-.95-.71-1.42-1.06-17.79-13.62-16.03-21.9-10.07-31.48,1.68-2.7,3.95-5.23,6.78-7.62,6.11-5.26,14.88-10.04,26.13-15.28,2.31-1.1,4.77-2.2,7.31-3.34,20.45-9.16,33.81-4.13,42.38,4.88,7.64,8.03-.24,20.82-2.03,23.47-.22.32-.34.5-.34.5.57.49,1.2,1.01,1.91,1.54.2.18.43.35.68.53,4.55,3.45,11.6,7.8,20.53,9.97,11.26,2.71,25.48,1.98,41.57-8.38,7.33-4.7,13.94-8.18,19.79-10.76,5.32-2.35,10-3.92,14-4.98,10.48-2.84,16.2-2.05,16.2-2.05,76.81-1.59,90.1,100.16,90.1,100.16,5.79,2.73,2.62,11.06,1.12,14.28h-.01c-.36.8-.63,1.27-.63,1.27Z" style="fill:#eee;"/><path d="m780.69,1378.42c-.71-.53-1.34-1.05-1.91-1.54,0,0,.13-.19.34-.5l-5.32,1.26-13.71,5.21-.02.02-17.36,6.59s-.29-.37-.76-1.05c-3.04-4.21-13.78-20.62-10.48-37.04-11.25,5.24-20.01,10.02-26.13,15.28-2.84,2.39-5.1,4.91-6.78,7.62-5.96,9.58-7.72,17.86,10.07,31.48l.64,3.96c-2.69,10.59-10.26,47.91,10.76,65.93,0,0,3.64,6.83,18.05,5.13,14.39-1.68,68.56,11.99,92.98,19.64,20.76,6.5,67.55,13.02,122.91-8.07,9.78-3.71,19.83-8.29,30.05-13.89,0,0,.28-.47.63-1.25-17.43,4.8-63.15,15.89-94.91,9.73-39.97-7.76-87.45-30.63-101.86-28.93-14.41,1.69-39.17,7.51-46.11-8.2-6.92-15.72-8.68-38.61-4.69-46.42l13.75-10.4.02-.02.88-.67.3-.04,9.71-1.45s47.13,24.92,61.98,17.66c12.98-6.34,40.57-28.73,53.53-43.67-4,1.06-8.68,2.63-14,4.98-5.85,2.58-12.46,6.05-19.79,10.76-16.09,10.36-30.31,11.09-41.57,8.38-8.93-2.18-15.98-6.52-20.53-9.97l-.68-.53Z" style="fill:#cfcfcf;"/><path d="m709.26,1409.7c-2.69,10.59-10.26,47.91,10.76,65.93,0,0,3.64,6.83,18.05,5.13,14.39-1.68,68.56,11.99,92.98,19.64,20.76,6.5,67.55,13.02,122.91-8.07-17.7,3.07-44.81,6.49-64.73,3.07-32.11-5.48-79.05-15.16-101.23-19.25-22.16-4.07-50.97-.1-57.18-9.63-6.22-9.53-14.05-47.85-11.23-55.09.5-1.27.91-2.48,1.25-3.59,1.61-5.16,1.69-8.36,1.69-8.36,0,0-.47-.72-1.25-1.97-3.43-5.41-12.89-20.88-15.95-30.87-2.84,2.39-5.1,4.91-6.78,7.62-5.96,9.58-7.72,17.86,10.07,31.48l.64,3.96Z" style="fill:#bcbcbc;"/><path d="m822.1,1403.16c-7.61-.42-18.84-7.26-20.2-14.24,11.26,2.71,25.48,1.98,41.57-8.38,7.33-4.7,13.94-8.18,19.79-10.76-11.73,11.98-34.15,33.79-41.16,33.38Z" style="fill:#bcbcbc;"/><path d="m780.69,1378.42c-6.27.95-13.43,2.52-20.6,4.42l-.02.02c-6.25,1.65-12.5,3.55-18.13,5.54-4.08,1.41-7.83,2.88-11.03,4.27-3.49,1.53-6.72,3.18-9.64,4.84-5.6,3.17-10.02,6.27-12.66,8.23l.64,3.96c2.87.53,6.95-.26,11.58-1.85,9.37-3.17,21.1-9.57,29.99-14.86l.02-.02,1.18-.7c6.06-3.65,10.64-6.66,11.9-7.54,2.88-2.03,11.57-4.36,17.43-5.77l-.68-.53Z" style="fill:#9d9b9c;"/><path d="m626.64,1416.99c-.21,0-.43,0-.65-.01-8.23-.35-14.62-7.3-14.27-15.53l8.29-195.57c.35-8.23,7.36-14.64,15.53-14.27,8.23.35,14.62,7.3,14.27,15.53l-8.28,195.57c-.34,8.02-6.95,14.28-14.89,14.28Z" style="fill:#9f283c;"/><path d="m635.55,1191.6c-1.55-.07-3.06.11-4.5.49,4.49,2.73,7.41,7.76,7.17,13.38l-8.29,195.57c-.28,6.68-4.92,12.12-11.05,13.76,2.09,1.27,4.51,2.05,7.12,2.16.22,0,.43.01.65.01,7.94,0,14.55-6.27,14.89-14.28l8.28-195.57c.35-8.23-6.04-15.18-14.27-15.53Z" style="fill:#db7f85;"/><path d="m716.4,1499.01c-3.98,26.9-30.08,45.79-50.81,54.57-16.41,6.91-34.53,12.88-55.86,11.73-13.2-.69-27.59-4.12-43.58-11.73-41.86-19.89-48.48-65.88-43.51-85.37,4.97-19.47,46.81-65.88,46.81-65.88-5.79-5.79-11.61-11.59.82-30.23,3.38-5.1,8.35-9.08,13.79-12.16,9.05-5.17,19.42-7.88,25.88-9.17,3.86-.77,6.32-1.04,6.32-1.04,23.14-1.15,38.8,4.6,47.93,12.1,4.1,3.35,6.89,7.08,8.43,10.67,4.2,9.79-4.6,16.65-7.43,18.54-.52.35-.84.52-.84.52l1.64,3.73s34.8,39.78,48.08,79.55c2.88,8.65,3.48,16.73,2.34,24.16Z" style="fill:#eee;"/><path d="m716.4,1499.01c-3.98,26.9-30.08,45.79-50.81,54.57-16.41,6.91-34.53,12.88-55.86,11.73-13.2-.69-27.59-4.12-43.58-11.73-41.86-19.89-48.48-65.88-43.51-85.37,4.97-19.47,46.81-65.88,46.81-65.88-5.79-5.79-11.61-11.59.82-30.23,3.38-5.1,8.35-9.08,13.79-12.16,9.05-5.17,19.42-7.88,25.88-9.17.82,3.53,1.17,8.33,1.52,13.7,1.34-.17,2.99-.65,4.92-1.49,8.38-3.73,34.48,5.91,41.32,6.84,3.68.49,5.57-3.86,6.49-7.98,4.1,3.35,6.89,7.08,8.43,10.67,4.2,9.79-4.6,16.65-7.43,18.54-2.14-1.39-3.75-2.58-3.75-2.58l-9.65-8.08-18.64-5.59-20.76,1.76c.5,5.25,1.29,10.57,2.64,15.44,4.97,17.8-7.04,36.05-9.52,52.21-2.49,16.16-19.07,49.72-19.07,49.72-4.97,28.17.25,45.94,46.84,52.21,30.97,4.15,67.87-30.88,83.13-47.11Z" style="fill:#cfcfcf;"/><path d="m609.72,1565.31c-13.2-.69-27.59-4.12-43.58-11.73-41.86-19.89-48.48-65.88-43.51-85.37,4.97-19.47,46.81-65.88,46.81-65.88-5.79-5.79-11.61-11.59.82-30.23,3.38-5.1,8.35-9.08,13.79-12.16-2.24,12.61,1.12,33.29,1.12,33.29-25.68,28.59-17.4,79.13-17.4,79.13-15.32,16.98-18.22,34.8-5.79,58,8.8,16.43,33.56,29.11,47.73,34.95Z" style="fill:#bcbcbc;"/><path d="m547.49,1486.04s66.29-58.01,152.48-9.94c0,0-83.7-73.34-152.48,9.94Z" style="fill:#9d9b9c;"/><path d="m574.01,1396.54s36.88-32.73,89.5-7.04c0,0-35.63-48.07-89.5,7.04Z" style="fill:#9d9b9c;"/><polygon points="1084.35 474.09 896.1 1219.88 868.61 1221.47 832.86 1223.54 797.33 1225.58 761.99 1227.63 723.87 1229.86 688.91 1231.89 645.84 1234.36 601.42 1236.94 601.19 1236.8 597.93 1235.09 561.98 1216.05 544.2 1206.66 512.4 1189.8 489.91 1177.9 457.31 1160.62 430.77 1146.58 498.07 367.33 1084.35 474.09" style="fill:#f2dfdf;"/><polygon points="601.19 1236.8 561.98 1216.05 698.39 403.81 741.96 411.74 601.19 1236.8" style="fill:#cd444b;"/><polygon points="645.84 1234.36 601.42 1236.94 601.19 1236.8 597.93 1235.09 735.37 410.54 784.05 419.41 645.84 1234.36" style="fill:#cd444b;"/><polygon points="544.2 1206.66 512.4 1189.8 620.89 389.7 660.78 396.96 544.2 1206.66" style="fill:#cd444b;"/><polygon points="868.74 434.83 723.87 1229.86 688.91 1231.89 829.27 427.64 868.74 434.83" style="fill:#cd444b;"/><polygon points="959.09 451.28 797.33 1225.58 761.99 1227.63 919.62 444.1 959.09 451.28" style="fill:#cd444b;"/><polygon points="1048.42 467.55 868.61 1221.47 832.86 1223.54 1008.89 460.35 1048.42 467.55" style="fill:#cd444b;"/><polygon points="489.91 1177.9 457.31 1160.62 538.57 374.71 584.72 383.11 489.91 1177.9" style="fill:#cd444b;"/><polygon points="751.13 413.41 601.19 1236.8 597.93 1235.09 561.98 1216.05 544.2 1206.66 512.4 1189.8 489.91 1177.9 457.31 1160.62 430.77 1146.58 498.07 367.33 751.13 413.41" style="fill:#8e1b26; opacity:.42;"/><path d="m505.74,402.57s-50.75,9.44-19.64-38.02c0,0-30.4-28.59,13.21-40.5,0,0-1.89-31.28,29.98-31.61,0,0-18.79-31.44,19.45-31.48,0,0,4.14-33.98,39.1-25.57,0,0,9.79-26.53,54.36-32.42,0,0,10.79-27.22,30.52-23.34,0,0,15.96-54.01,47.59-3.3,0,0,20.27-26.37,50.62,2.51,0,0,35.53-42.86,55.86-3.84,0,0,29.67-33.12,48.72,16.17,0,0,19.39-2.31,26.27,14.41,0,0,29.88-27.83,36.47,17.73,0,0,19.98-3.95,24.83,22.33,0,0,33.22-26.93,29.4,32.5,0,0,42.9-33.63,38.37,20.12,0,0,37.01-15.73,28.68,39.66,0,0,43.38-12.24,31.43,39,0,0,21.8,10.1-1.4,36.52,0,0,36.52,11.03,10.47,38.68,0,0,45.83,51.25-24.13,50.77,0,0-47.93,32.42-56.47-21.67,0,0-25.74,16.33-39.83-7.25,0,0-5.64,45.38-38.83,1.68,0,0-24.5,9.55-33.28-9.56,0,0-6.12,3.89-19.03,3.54-11.33-.31-6.48,45.23-40.68,2.22,0,0-35.99,10.08-24.42-24.59,0,0-36.77,52.85-54.78-2.1,0,0-30.06,20.8-34.98-9.87,0,0-27.52,40.52-43.99-13.26,0,0-22.43,22.18-29.97-3.71,0,0-31.67,5.62-30.51-5.56,0,0-40.31,33.81-39.6-13.34,0,0-13.11,23.88-36.29,2.15,0,0-24.86,34.23-47.46.99Z" style="fill:#efce79;"/><path d="m664.93,235s26.93-19.32,39.86,7.26c0,0-14.56-13.15-39.86-7.26Z" style="fill:#daa976;"/><path d="m567.55,314.16s27.88-30.04,46.83,12.16c0,0-17.95-24.46-46.83-12.16Z" style="fill:#daa976;"/><path d="m690.61,301.44s19.6-42.45,37.28,6.79c0,0-17.48-31.04-37.28-6.79Z" style="fill:#daa976;"/><path d="m695.59,379.86s19.61-35.18,42.67,7.77c0,0-20.91-26.82-42.67-7.77Z" style="fill:#daa976;"/><path d="m522.83,360.11s11.13-13.31,27.18,4.95c0,0-12.8-10.91-27.18-4.95Z" style="fill:#daa976;"/><path d="m590.37,255.33s38.27-23.91,49.23,8.97c0,0,18.23-10.31,27.84,5.07,0,0-9.56-9.01-28.69-3.71,0,0-8.25-27.84-48.38-10.32Z" style="fill:#daa976;"/><path d="m748.76,235.73s15.28-17.4,32.04,5.84c0,0-17.35-16.68-32.04-5.84Z" style="fill:#daa976;"/><path d="m881.56,269.07s27.76-20.51,45.62,8.31c0,0-17.47-18.25-45.62-8.31Z" style="fill:#daa976;"/><path d="m820.61,410.92s15.49-18.55,35.75,6.51c0,0-20.64-19.68-35.75-6.51Z" style="fill:#daa976;"/><path d="m936.71,415.16s20.12-27.35,43.37,7.9c0,0-23.84-22.04-43.37-7.9Z" style="fill:#daa976;"/><path d="m878.82,330.66s28.87-35.52,51.58,9.39c0,0-14.82-35-51.58-9.39Z" style="fill:#daa976;"/><path d="m997,364.5s19.26-30.4,42.2,7.68c0,0-22.83-27.57-42.2-7.68Z" style="fill:#daa976;"/><path d="m938.24,223.32s.38-.08,1.07-.14c-5.15,7.15-7.74,15.91-7.74,15.91-19.74-3.88-30.53,23.34-30.53,23.34-44.56,5.91-54.35,32.42-54.35,32.42-34.95-8.4-39.1,25.58-39.1,25.58-38.23.04-19.44,31.48-19.44,31.48-31.89.32-29.98,31.6-29.98,31.6-43.61,11.92-13.22,40.51-13.22,40.51-5.06,7.7-7.94,13.91-9.26,18.9-.9-2.08-1.64-4.59-2.13-7.61,0,0-27.53,40.5-43.99-13.27,0,0-22.42,22.17-29.96-3.71,0,0-31.69,5.61-30.53-5.56,0,0-40.31,33.81-39.6-13.34,0,0-13.09,23.87-36.29,2.14,0,0-24.86,34.23-47.46,1,0,0-50.77,9.43-19.65-38.02,0,0-30.4-28.59,13.21-40.49,0,0-1.89-31.28,29.98-31.62,0,0-18.79-31.42,19.47-31.48,0,0,4.13-33.96,39.1-25.56,0,0,9.8-26.53,54.35-32.42,0,0,10.79-27.22,30.51-23.34,0,0,15.99-54.01,47.61-3.29,0,0,20.26-26.39,50.61,2.48,0,0,35.54-42.84,55.87-3.83,0,0,29.67-33.13,48.72,16.16,0,0,19.39-2.31,26.25,14.42,0,0,29.9-27.84,36.47,17.73Z" style="fill:#b78e34; opacity:.32;"/><path d="m533.21,1215.37c-6.52-.4-11.67-5.82-11.66-12.43l.76-391.82c.02-6.86,5.59-12.42,12.45-12.4,6.89.03,12.42,5.59,12.41,12.45l-.76,391.83c-.02,6.87-5.59,12.42-12.45,12.41-.25,0-.5,0-.75-.02Z" style="fill:#9f283c;"/><path d="m531.48,1203.54l.76-391.82c0-5.34,3.41-9.85,8.15-11.6-1.69-.87-3.58-1.4-5.62-1.41-6.87-.01-12.44,5.54-12.45,12.4l-.76,391.82c-.02,6.62,5.14,12.04,11.66,12.43.25.01.49.02.75.02,1.51,0,2.94-.31,4.28-.8-4.01-2.06-6.77-6.22-6.76-11.05Z" style="fill:#db7f85;"/><path d="m656.39,1308.03c-.8.45-1.62.84-2.44,1.15-4.89,1.84-9.89,1.17-14.13-.29-3.95-1.36-7.23-3.43-9.2-4.82h-.02c-1.19-.85-1.9-1.47-1.9-1.47,0,0-.1.81-.28,2.25v.03c-.87,6.49-3.84,25.56-10,37.57-1.82,3.57-3.94,6.53-6.37,8.33-10.7,7.96-24.81,10.59-38.65,7.29-2.19-.5-4.34-1.16-6.51-1.97,0,0-.75.48-2.09,1.22-.69.35-1.57.77-2.57,1.26h-.02c-2.82,1.32-6.77,2.85-11.34,3.79-3.28.67-6.86,1.05-10.56.82-12.8-.79-29.17-.79-40.71-18.84-1.34-2.05-2.6-4.37-3.78-6.93,0,0-1.33.04-3.53-.21-1.91-.19-4.47-.6-7.41-1.4-3.43-.93-7.38-2.4-11.44-4.69-9.66-5.42-19.86-15.61-24.93-34.58-5.65-21.19-10.01-53.02-7.22-85.05.08-.94.17-1.91.28-2.87.19-1.93.41-3.84.65-5.74.13-.96.24-1.9.4-2.87.14-.96.27-1.9.43-2.86.13-.89.28-1.8.44-2.69.22-1.2.45-2.41.67-3.62.15-.74.29-1.5.46-2.24.18-.93.39-1.86.59-2.8,1.27-5.63,2.81-11.19,4.68-16.6.3-.9.63-1.81.96-2.7.33-.87.66-1.78,1.01-2.66.33-.87.68-1.72,1.03-2.6.03-.02.03-.07.06-.1.67-1.63,1.39-3.25,2.14-4.85.12-.27.26-.56.37-.85.34-.65.66-1.33.99-1.98.4-.83.82-1.65,1.25-2.47,1.32-2.51,2.74-4.96,4.26-7.36,1-1.58,2.04-3.16,3.13-4.69.55-.77,1.09-1.53,1.66-2.27.57-.76,1.14-1.5,1.73-2.23.57-.73,1.16-1.47,1.78-2.18.75-.9,1.55-1.82,2.36-2.69.8-.9,1.63-1.8,2.48-2.64,0,0,.07-1.1.3-2.92v-.02s-.01-.1.01-.15c.05-.47.14-.99.19-1.56.03-.19.05-.39.09-.59.12-.76.25-1.63.4-2.54v-.07c.14-.67.26-1.38.41-2.12.21-1.03.45-2.09.69-3.2.09-.3.16-.59.23-.88.23-.91.46-1.82.74-2.74.13-.49.28-.96.43-1.42.13-.46.28-.95.46-1.41.16-.46.31-.95.49-1.41.16-.49.33-.95.54-1.44.17-.46.38-.94.58-1.4.38-.95.81-1.87,1.27-2.79.23-.46.45-.92.7-1.38.48-.89.99-1.78,1.53-2.62.22-.36.44-.69.66-1,.41-.62.85-1.19,1.31-1.76.22-.29.43-.54.67-.81,1.47-1.75,3.16-3.32,5.06-4.55.39-.25.78-.49,1.19-.69.62-.39,1.29-.72,1.95-1,5.19-2.2,15.88-5.6,28.38-7.93,26.33-4.88,60.64-5.05,68.16,20.47,1.24,4.16,1.76,9,1.42,14.63,0,0,.44.17,1.21.57.03,0,.05,0,.08.03.22.09.48.2.75.34.02,0,.02.02.05.03.29.14.61.29.97.48,1.21.6,2.73,1.39,4.47,2.36.51.28,1,.59,1.53.89.53.31,1.06.61,1.64.97.55.34,1.13.67,1.7,1.05,2.3,1.46,4.79,3.13,7.29,5.03,5.04,3.79,10.19,8.49,14.24,13.97,12.08,16.3,30.09,37.34,34.13,42.56,4.04,5.23,8.86,17.98,1.25,40.55-7.61,22.57-9.22,38.66-4.87,48.89,4.35,10.23,11.9,29.37-1,36.68Z" style="fill:#eee;"/><path d="m458.62,1202.51c-8.03,41.98,5.53,104.8,14.81,128.6-9.66-5.42-19.86-15.61-24.93-34.58-11.14-41.78-17.25-124.97,26.58-169.6,0,0,2.02-32.88,19.92-40.5,5.19-2.2,15.88-5.6,28.38-7.93-.45,8.89,1.12,18.73,10.13,19.63,13.6,1.33,43.52-.84,58.03.84,1.24,4.16,1.76,9,1.42,14.63,0,0,9.66,4.18,19.68,11.77-9.12.08-23.8.26-33.5.46-14.96.33-111.35,28.67-120.51,76.67Z" style="fill:#cfcfcf;"/><path d="m499.59,1344.34c11.55,18.04,27.91,18.05,40.71,18.84,3.7.23,7.28-.15,10.56-.82-23.47-19.3-22.21-83.33-22.21-83.33-25.05,2.2-42.19-12.55-42.19-12.55-4.5,2.22-8.76.71-8.76.71-3.34,30.06,2.21,54.13,7.18,68.61,2.94.8,5.5,1.2,7.41,1.4l7.31,7.15Z" style="fill:#cfcfcf;"/><path d="m573.4,1358.06c13.84,3.29,27.95.67,38.65-7.29,2.43-1.8,4.55-4.75,6.37-8.33-7.12-13.39-16.43-34.63-14.72-68.77,0,0-46.55,7.74-56.13,1.54l-5.19,3.42s3.9,58.74,19.83,79.95h.02c1-.49,1.87-.91,2.57-1.26l8.6.75Z" style="fill:#cfcfcf;"/><path d="m653.95,1309.17c-4.89,1.84-9.89,1.17-14.13-.29-3.95-1.36-7.23-3.43-9.2-4.82h-.02c-1.19-.85-1.9-1.47-1.9-1.47,0,0-.1.81-.28,2.25-6.75-17.52-15.89-43.09-15.89-43.09,8.48-6.33,19.27-90.98,19.27-90.98,14.84,22.08-.23,64.74-3.8,92.55-2.14,16.64,13.24,34.31,25.96,45.85Z" style="fill:#cfcfcf;"/><path d="m499.59,1344.34c-4.11-16.69-12.82-54.58-13.13-77.87l-.79,2.65s-2.71,44.24,6.61,68.07l7.31,7.15Z" style="fill:#9d9b9c;"/><path d="m564.8,1357.31c-14.86-22.08-16.16-79.35-16.16-79.35,9.21,52.97,18.81,72.74,24.76,80.1l-8.6-.75Z" style="fill:#9d9b9c;"/><path d="m470.25,1132.26c38.66-22.49,115.96-18.28,124.74-17.71.54.03.82.05.82.05-.54-.15-1.11-.29-1.65-.42-48.05-12.78-100.52,3.23-118.78,9.81l-5.14,8.28Z" style="fill:#9d9b9c;"/><path d="m630.62,1304.06h-.02s-14.62-41.05-14.62-41.05c5.47-7.98,11.82-44.11,11.82-44.11,1.93,22.93-6.78,43.17-6.78,43.17-.63,10.3,13.33,36.83,18.8,46.81l-9.2-4.82Z" style="fill:#9d9b9c;"/><path d="m717.33,958.87s53.71-39.19,115.37-23.11c48.19,12.56,6.19,43.71,6.19,43.71,0,0-8.84,12.56,7.52,3.01,16.35-9.55,35.36-37.68,16.35-49.74-19.01-12.06-88.41-30.65-145.43,26.13Z" style="fill:#721f29;"/><path d="m750.99,604.01s112.74-49.34,125.4-55.5c12.67-6.15,16.72-10.35,18.55-1.12,1.83,9.23,5.37,28.29,5.37,28.29,0,0-8.2,17.83-11.73,19.61-3.53,1.78-104.58,13.82-121.69,17.14-17.12,3.31-25.67-1.02-15.89-8.42Z" style="fill:#aa4f57;"/><path d="m894.95,547.39c-.61-3.09-1.49-4.65-2.83-5.16.1.39.2.79.29,1.25,1.83,9.23,5.37,28.29,5.37,28.29,0,0-8.2,17.83-11.73,19.61-3.53,1.78-104.58,13.82-121.69,17.14-7.96,1.54-14.02,1.41-17.3.11-1.32,4.37,6.72,6.34,19.84,3.8,17.11-3.32,118.16-15.36,121.69-17.14,3.53-1.78,11.73-19.61,11.73-19.61,0,0-3.54-19.06-5.37-28.29Z" style="fill:#9f283c;"/><path d="m751.92,613.19c.54-.53,1.15-1.08,1.9-1.65,0,0,112.74-49.34,125.41-55.5,9.02-4.38,13.65-7.74,16.25-6-.18-.94-.36-1.85-.52-2.66-1.83-9.23-5.88-5.03-18.55,1.12-12.67,6.15-125.4,55.5-125.4,55.5-6.16,4.66-5.03,8.1.92,9.19Z" style="fill:#db7f85;"/><path d="m995.98,600.46s-16.56,32.87-15.88,39.44c.7,6.57,28.23,77.91,51.24,102.83,0,0,7.74,8.71.16-16.31-7.58-25.03-18.57-62.84-21.32-79.08-2.75-16.24-8.14-57.92-14.2-46.87Z" style="fill:#9f283c;"/><path d="m999.23,599.91s-16.56,32.87-15.88,39.44c.69,6.56,28.23,77.91,51.24,102.83,0,0,7.74,8.71.16-16.31-7.58-25.03-18.57-62.84-21.32-79.08-2.75-16.24-8.14-57.92-14.2-46.87Z" style="fill:#aa4f57;"/><path d="m1034.75,725.86c-7.58-25.03-18.57-62.84-21.32-79.08-2.75-16.24-8.14-57.92-14.2-46.87,0,0-.2.39-.54,1.08,4.7,4.6,8.71,34.84,10.95,48.11,2.75,16.24,13.74,54.05,21.32,79.08,2,6.62,2.93,10.86,3.22,13.54.14.15.27.32.4.46,0,0,7.74,8.71.16-16.31Z" style="fill:#db7f85;"/><path d="m984.73,828.14c-24.53,48.21-73.06,72.71-108.4,54.73-35.33-17.98-44.09-71.64-19.56-119.85,24.53-48.21,73.06-72.72,108.4-54.73,35.34,17.98,44.09,71.63,19.56,119.85Z" style="fill:#fff;"/><path d="m879.89,762.64c9.68-24.87,25.28-44.94,43.17-57.96-25.42,6.68-50.7,27.72-66.28,58.34-24.53,48.21-15.77,101.87,19.56,119.85,10.55,5.37,22.28,6.92,34.2,5.22-37.5-17.31-51.29-72.46-30.64-125.45Z" style="fill:#e5e5e5;"/><path d="m866.07,761.01c5.09-13.25,11.78-25.2,19.56-35.59-11.19,9.85-21.19,22.56-28.85,37.61-24.53,48.21-15.77,101.87,19.56,119.85,4.01,2.04,8.2,3.53,12.5,4.5-31.86-22.75-42.34-75.42-22.77-126.36Z" style="fill:#d2ceca;"/><path d="m945.13,754.11c-4.31-2.32-9.42-2.59-14.84-1.15,1.49,6.8.01,15.81-4.61,24.42-7.61,14.19-20.84,21.91-29.54,17.24-1.96-1.06-3.51-2.67-4.67-4.67-14.47,27.25-15.31,52.64-.64,60.51,14.76,7.93,39.64-4.88,54.37-32.32,14.72-27.44,14.69-56.11-.08-64.04Zm-35.17,81.65c-4.01-2.15-4.54-9-1.16-15.29,3.38-6.29,9.37-9.64,13.39-7.49,4.02,2.15,4.54,9,1.16,15.29-3.37,6.29-9.37,9.64-13.39,7.49Z"/><path d="m878.4,762.58c-19.22,60.08-70.49,97.36-114.52,83.27-44.03-14.09-64.14-74.2-44.92-134.28,19.21-60.07,70.49-97.35,114.52-83.27,44.03,14.09,64.14,74.21,44.92,134.28Z" style="fill:#fff;"/><path d="m739.26,710.88c8.1-32.71,24.64-60.23,45.17-78.9-28.05,12.42-53.26,41.38-65.48,79.59-19.22,60.08.89,120.2,44.92,134.28,4.03,1.29,8.12,2.14,12.23,2.59-34.86-24.62-51.11-80.08-36.85-137.57Z" style="fill:#e5e5e5;"/><path d="m718.46,728.17c.51-8.36,1.6-16.49,3.21-24.33-.96,2.54-1.87,5.11-2.71,7.73-19.22,60.08.89,120.2,44.92,134.28.03.01.07.02.1.03-29.81-22.56-48.58-67.37-45.52-117.71Z" style="fill:#d2ceca;"/><path d="m818.48,697.65c-3.96-2.13-8.64-2.38-13.61-1.05,1.37,6.24.01,14.5-4.23,22.4-6.98,13.01-19.11,20.09-27.09,15.81-1.8-.97-3.22-2.45-4.28-4.28-13.27,24.99-14.04,48.28-.58,55.5,13.55,7.27,36.36-4.48,49.87-29.64,13.5-25.17,13.47-51.46-.07-58.73Zm-32.25,74.88c-3.69-1.98-4.16-8.26-1.06-14.03,3.09-5.77,8.59-8.84,12.28-6.87,3.68,1.98,4.16,8.26,1.06,14.02-3.09,5.77-8.59,8.85-12.27,6.87Z"/><path d="m516.69,236.66c-.64-1.8-1.27-3.61-2.03-5.36.29.02.58.04.88.06-.68-1.18-1.37-2.36-2.05-3.52-.57-.97-1.15-1.93-1.73-2.88-.47-.79-.95-1.57-1.43-2.34-.59-.95-1.17-1.9-1.76-2.83-.82-1.3-1.64-2.57-2.45-3.81-.41-.63-.83-1.25-1.24-1.86-.79-1.18-1.58-2.33-2.36-3.44-.23-.33-.47-.68-.7-1.01-1-1.41-2-2.75-2.99-4.05-.21-.27-.42-.54-.62-.8-2.97-2.41-5.3-5.17-6.84-8.32-13.57-27.8,37.15-73.73,113.28-102.59,76.13-28.87,148.83-29.74,162.4-1.94,1.71,3.1,3.48,6.11,5.29,9.07.44.73.89,1.45,1.34,2.17,1.65,2.65,3.31,5.25,5.01,7.8.15.22.29.44.44.66,4.11,6.14,8.35,12.01,12.57,17.65.59.79,1.18,1.6,1.77,2.39.49.64.97,1.27,1.45,1.9,66.12-6.97,116.13,2.99,129.57,30.56,22.59,46.28-66.3,124.46-198.55,174.6-132.25,50.15-257.77,53.27-280.35,6.99-14.07-28.83,15.15-70.01,71.1-109.1Z" style="fill:#191818; mix-blend-mode:multiply; opacity:.1;"/><path d="m784.82,115.9c-1.26.15-2.5.3-3.72.44-1.44.17-1.3,2.45.16,2.3,1.72-.18,3.44-.35,5.17-.53,1.44,1.9,2.93,3.76,4.3,5.61-.88.14-1.75.26-2.63.42-1.31.23-.88,2.55.49,2.38,1.26-.16,2.54-.29,3.81-.45,2.24,3.21,4.46,6.43,6.61,9.7-.07.02-.14.03-.22.06-1.03.3-.53,1.88.56,1.65.21-.04.43-.08.64-.12,1.87,2.89,3.72,5.79,5.42,8.75.42.74.86,1.5,1.29,2.26-9.95,2.05-19.18,5.36-26.75,10.1-.95.6-.26,2.33.95,1.95,9.46-2.94,18.62-5.83,28.11-7.87,1.29,2.4,2.53,4.86,3.63,7.35-11.21,2-22.1,5.3-31.86,9.51-.7.31-.41,1.43.42,1.25,10.87-2.46,21.65-5.66,32.65-7.82,1.33,3.44,2.29,6.9,2.65,10.29-.7.18-1.39.37-2.1.54-.76.19-.38,1.34.41,1.21.6-.1,1.2-.22,1.8-.33.34,6.19-1.47,12.09-7.12,17.1-.22.19-.31.44-.36.7-5.1,1.95-10.1,3.99-14.86,6.28-.56.27-.1,1.36.52,1.08,4.76-2.13,9.76-4.03,14.85-5.85.39.41.95.63,1.56.38,1.55-.62,2.81-1.43,3.94-2.32,23.74-8.2,48.6-15.75,61.29-36.95.46-.76-.12-1.63-.92-1.93-18.55-6.98-43.5-9.14-65.5-5.3-2.1-3.74-4.37-7.41-6.73-11.03,14.83-2.91,30.18-4.93,45.43-4.95,14.74-.02,45.38,1.05,47.08,19.98,1.56,17.42-19.22,28.8-33.17,36.68-19.76,11.16-40.81,20.33-61.77,29.53-47.71,20.92-88.62,51.51-135.7,73.45-36.22,16.88-82.23,32.69-124.48,30.64-18.8-.91-37.64-8.27-34.37-28.58,3.38-21.01,19.75-35.92,37.08-48.97,2.49,3.2,5.21,6.24,8.14,9.07-3.99,3.46-7.77,7.09-11.23,10.88-6.29,6.87-20.57,22.28-11.95,32.25,5.01,5.8,14.16,6.93,21.59,7.07,15.81.31,31.84-1.94,47.1-5.1,26.25-5.45,51.53-14.06,74.26-26.68,2.01-.43,4.01-.87,5.98-1.33,1.07-.25.91-1.71.03-2.13,4.37-2.62,8.68-5.35,12.83-8.3.73-.52,0-1.84-.84-1.3-5.4,3.42-10.97,6.63-16.64,9.68-13.63.93-27.46,2.65-41.29,3.27.22-.09.45-.18.67-.27.74-.29.37-1.58-.43-1.27-1.49.56-2.98,1.13-4.48,1.7-13.26.36-26.49-.48-39.49-4.25-10.77-3.12-20.87-8.17-29.04-15.28,9.26-7.73,19.26-15.01,29.94-20.73.57-.31.12-1.43-.55-1.15-11.5,4.89-22.41,11.54-32.11,19.3-1.94-1.91-3.79-3.92-5.43-6.11-.74-.98-1.41-1.99-2.11-3,3.97-2.91,7.94-5.75,11.74-8.55,1.14-.84.07-2.79-1.34-2.04-4.14,2.22-8.36,4.72-12.53,7.45-2.36-3.71-4.42-7.57-6.16-11.55,11.76-9.25,24.31-17.55,37.39-23.84.98-.47.19-2.3-.91-1.87-13.81,5.5-26.25,13.6-37.78,22.55-.17-.43-.37-.85-.52-1.28-1.62-4.46-2.6-9.18-3.98-13.75,4-2.82,8.04-5.59,12.15-8.2,1.38-.88.05-3.14-1.51-2.29-4,2.17-7.91,4.61-11.76,7.15-.8-2.14-1.73-4.21-2.96-6.19,30.6-19.11,67.36-37.31,108.29-52.83,50.29-19.07,99.59-31.32,142.64-36.66,0,.07-.02.13,0,.2.85,2.34,2.21,4.58,3.73,6.77Z" style="fill:#f2d3a0;"/><path d="m558.64,288.37c-4.79-.16-13.26,1.09-6.25-3.91,7.38-5.27,15.42-9.73,22.81-14.97,2.11.9,4.26,1.71,6.45,2.39,9.99,3.09,20.54,4.75,31.26,5.36-13.19,4.64-26.78,8.66-40.73,10.25-4.47.51-9,1.01-13.54.87Z" style="fill:#f2d3a0;"/><path d="m573.57,268.74c-10.11,5.09-19.56,11.39-28.04,18.44-.6.5-.65,1.74.38,1.93,24.29,4.55,48.85-3.06,71.27-11.66,15.33.48,30.9-1.13,45.61-3.81-17.53,8.56-36.15,15.36-55.52,19.9-14.56,3.42-29.42,6.02-44.52,7.07-8.63.6-23.76,2.3-30.85-4.17-11.43-10.43,10.08-29.27,17.4-35.89,1.63-1.47,3.29-2.94,4.97-4.4,5.79,5.12,12.29,9.4,19.28,12.58Z" style="fill:#f2d3a0;"/><path d="m526.68,200.63c.05,2.62.29,5.26.68,7.9-14.85,10.6-28.49,23.38-40.59,35.82-13.82,14.21-29.36,31.68-32.82,51.26-7.26,41.06,44.08,52.79,78.79,52.01,58.34-1.31,114.58-19.45,165.86-42.25,56.7-25.22,111.06-55.69,162.98-88.08,25.79-16.09,77.03-50.13,45.86-83.57-27.57-29.59-80.72-22.9-118.86-18.27-1.91-2.48-3.99-4.77-6.33-6.65,69.58-8.45,122.62,1.28,136.53,29.81,22.59,46.28-66.3,124.46-198.55,174.6-132.25,50.15-257.77,53.27-280.35,6.99-15.33-31.42,20.72-77.51,86.79-119.57Z" style="fill:#f2d3a0;"/><path d="m849.23,115.28c23.21,1.39,54.69,6.81,63.35,30.64,8.76,24.1-16.1,44.47-34.39,57.33-20.7,14.56-43.18,27.1-65.29,39.81-58.86,33.86-120.04,67.27-187.16,86.57-25.97,7.47-53.05,13.19-80.5,14.85-24.91,1.5-57.84,1.54-77.5-16.11-25.41-22.83-4.18-54.19,13.44-73.59,13.88-15.27,29.77-29.7,46.87-42.39,1.08,5.11,2.73,10.2,4.97,15.15-3.39,2.78-6.73,5.6-9.97,8.45-18.22,15.97-37.18,34.44-45.55,56.81-21.18,56.65,82.96,48.13,114.23,40.57,55.1-13.33,104.94-39.94,152.69-66.96,20.82-11.78,41.2-24.44,62.6-35.36,16.33-8.34,33.35-15.57,49.42-24.33,22.09-12.04,67.88-37.97,43.91-66.89-11.13-13.42-33.26-17.22-50.08-18.55-18.8-1.49-37.78-.84-56.25,1.92-1.21-1.81-2.45-3.66-3.75-5.48,19.51-1.97,39.26-3.61,58.96-2.43Z" style="fill:#f2d3a0;"/><path d="m856.54,151c4.26.69,8.55,1.41,12.67,2.69,4.73,1.47,2.9,3.74.36,6.64-12.93,14.75-32.48,21.72-51.67,28.76,2.88-4.13,3.29-9.62,2.44-15.22,12.12-2.35,23.73-5.75,34.06-12.08.83-.51.63-2-.44-2.21-12.32-2.4-25.36-2.24-38.06-.29-.53-1.22-1.07-2.39-1.59-3.45-.66-1.33-1.38-2.63-2.07-3.94,5.47-1.04,11.06-1.79,16.91-2.04,9.09-.38,18.33-.32,27.39,1.14Z" style="fill:#f2d3a0;"/><path d="m858.57,125.28c18.51,2.77,51.41,12.79,44.97,35.74-5.05,17.99-25.9,30.24-42.07,39.4-16.74,9.48-34.43,17.34-51.76,25.88-45.54,22.46-87.2,50.71-133.26,72.51-48.27,22.86-107.75,46.93-164.6,35.17-16.38-3.38-35.56-11.56-33.45-29.67,1.8-15.47,12.23-29.38,22.53-41.03,9.87-11.17,21.23-22.45,33.6-32.73,1.86,3.69,4.01,7.27,6.44,10.7-13.71,9.75-26.27,21.99-32.94,35.67-5.13,10.52-9.11,26.08-.15,36.49,18.12,21.04,61.66,10.9,84.46,5.84,53.36-11.83,99.13-36.9,144.24-64.06,19.15-11.53,37.77-22.53,58.46-31.65,19.44-8.57,39.09-16.89,57.8-26.69,15.06-7.88,32.06-16.64,41.83-30.15,5.97-8.25,5.44-21.22-3.72-28.05-12.25-9.12-29.98-9.9-44.79-9.43-14.8.46-29.86,2-44.04,5.71-1.68-2.52-3.41-5.03-5.19-7.49-.41-.57-.82-1.17-1.23-1.76,20.67-2.31,42.15-3.5,62.86-.4Z" style="fill:#f2d3a0;"/><path d="m850.07,161.59c-4.23,2.28-8.57,4.34-13.23,5.84-5.53,1.79-11.16,3.3-16.81,4.77-.66-3.44-1.72-6.85-2.92-9.96,6.15-1.08,12.38-1.81,18.75-1.81,2.17,0,13.98,1.28,14.2,1.16Z" style="fill:#f2d3a0;"/><path d="m788.58,115.44c-1.91-2.48-3.99-4.77-6.33-6.65-.1-.08-.18-.18-.27-.25-.42-.33-.9-.04-.9.39,0,.07-.02.13,0,.2.85,2.34,2.21,4.58,3.73,6.77-1.26.15-2.5.3-3.72.44-1.44.17-1.3,2.45.16,2.3,1.72-.18,3.44-.35,5.17-.53,1.44,1.9,2.93,3.76,4.3,5.61-.88.14-1.75.26-2.63.42-1.31.23-.88,2.55.49,2.38,1.26-.16,2.54-.29,3.81-.45,2.24,3.21,4.46,6.43,6.61,9.7-.07.02-.14.03-.22.06-1.03.3-.53,1.88.56,1.65.21-.04.43-.08.64-.12,1.87,2.89,3.72,5.79,5.42,8.75.42.74.86,1.5,1.29,2.26-9.95,2.05-19.18,5.36-26.75,10.1-.95.6-.26,2.33.95,1.95,9.46-2.94,18.62-5.83,28.11-7.87,1.29,2.4,2.53,4.86,3.63,7.35-11.21,2-22.1,5.3-31.86,9.51-.7.31-.41,1.43.42,1.25,10.87-2.46,21.65-5.66,32.65-7.82,1.33,3.44,2.29,6.9,2.65,10.29-.7.18-1.39.37-2.1.54-.76.19-.38,1.34.41,1.21.6-.1,1.2-.22,1.8-.33.34,6.19-1.47,12.09-7.12,17.1-.22.19-.31.44-.36.7-5.1,1.95-10.1,3.99-14.86,6.28-.56.27-.1,1.36.52,1.08,4.76-2.13,9.76-4.03,14.85-5.85.39.41.95.63,1.56.38,1.55-.62,2.81-1.43,3.94-2.32,23.74-8.2,48.6-15.75,61.29-36.95.46-.76-.12-1.63-.92-1.93-18.55-6.98-43.5-9.14-65.5-5.3-2.1-3.74-4.37-7.41-6.73-11.03,14.83-2.91,30.18-4.93,45.43-4.95,14.74-.02,45.38,1.05,47.08,19.98,1.56,17.42-19.22,28.8-33.17,36.68-19.76,11.16-40.81,20.33-61.77,29.53-47.71,20.92-88.62,51.51-135.7,73.45-36.22,16.88-82.23,32.69-124.48,30.64-18.8-.91-37.64-8.27-34.37-28.58,3.38-21.01,19.75-35.92,37.08-48.97,2.49,3.2,5.21,6.24,8.14,9.07-3.99,3.46-7.77,7.09-11.23,10.88-6.29,6.87-20.57,22.28-11.95,32.25,5.01,5.8,14.16,6.93,21.59,7.07,15.81.31,31.84-1.94,47.1-5.1,26.25-5.45,51.53-14.06,74.26-26.68,2.01-.43,4.01-.87,5.98-1.33,1.07-.25.91-1.71.03-2.13,4.37-2.62,8.68-5.35,12.83-8.3.73-.52,0-1.84-.84-1.3-5.4,3.42-10.97,6.63-16.64,9.68-13.63.93-27.46,2.65-41.29,3.27.22-.09.45-.18.67-.27.74-.29.37-1.58-.43-1.27-1.49.56-2.98,1.13-4.48,1.7-13.26.36-26.49-.48-39.49-4.25-10.77-3.12-20.87-8.17-29.04-15.28,9.26-7.73,19.26-15.01,29.94-20.73.57-.31.12-1.43-.55-1.15-11.5,4.89-22.41,11.54-32.11,19.3-1.94-1.91-3.79-3.92-5.43-6.11-.74-.98-1.41-1.99-2.11-3,3.97-2.91,7.94-5.75,11.74-8.55,1.14-.84.07-2.79-1.34-2.04-4.14,2.22-8.36,4.72-12.53,7.45-2.36-3.71-4.42-7.57-6.16-11.55,11.76-9.25,24.31-17.55,37.39-23.84.98-.47.19-2.3-.91-1.87-13.81,5.5-26.25,13.6-37.78,22.55-.17-.43-.37-.85-.52-1.28-1.62-4.46-2.6-9.18-3.98-13.75,4-2.82,8.04-5.59,12.15-8.2,1.38-.88.05-3.14-1.51-2.29-4,2.17-7.91,4.61-11.76,7.15-.8-2.14-1.73-4.21-2.96-6.19-.02-.03-.03-.06-.05-.08-1.11-1.77-3.46-.63-3.47,1.04,0,.41.04.83.05,1.24.05,2.62.29,5.26.68,7.9-14.85,10.6-28.49,23.38-40.59,35.82-13.82,14.21-29.36,31.68-32.82,51.26-7.26,41.06,44.08,52.79,78.79,52.01,58.34-1.31,114.58-19.45,165.86-42.25,56.7-25.22,111.06-55.69,162.98-88.08,25.79-16.09,77.03-50.13,45.86-83.57-27.57-29.59-80.72-22.9-118.86-18.27Zm-175.67,161.81c-13.19,4.64-26.78,8.66-40.73,10.25-4.47.51-9,1.01-13.54.87-4.79-.16-13.26,1.09-6.25-3.91,7.38-5.27,15.42-9.73,22.81-14.97,2.11.9,4.26,1.71,6.45,2.39,9.99,3.09,20.54,4.75,31.26,5.36Zm-58.62-21.08c5.79,5.12,12.29,9.4,19.28,12.58-10.11,5.09-19.56,11.39-28.04,18.44-.6.5-.65,1.74.38,1.93,24.29,4.55,48.85-3.06,71.27-11.66,15.33.48,30.9-1.13,45.61-3.81-17.53,8.56-36.15,15.36-55.52,19.9-14.56,3.42-29.42,6.02-44.52,7.07-8.63.6-23.76,2.3-30.85-4.17-11.43-10.43,10.08-29.27,17.4-35.89,1.63-1.47,3.29-2.94,4.97-4.4Zm257.95-104.26c5.47-1.04,11.06-1.79,16.91-2.04,9.09-.38,18.33-.32,27.39,1.14,4.26.69,8.55,1.41,12.67,2.69,4.73,1.47,2.9,3.74.36,6.64-12.93,14.75-32.48,21.72-51.67,28.76,2.88-4.13,3.29-9.62,2.44-15.22,12.12-2.35,23.73-5.75,34.06-12.08.83-.51.63-2-.44-2.21-12.32-2.4-25.36-2.24-38.06-.29-.53-1.22-1.07-2.39-1.59-3.45-.66-1.33-1.38-2.63-2.07-3.94Zm23.63,8.53c2.17,0,13.98,1.28,14.2,1.16-4.23,2.28-8.57,4.34-13.23,5.84-5.53,1.79-11.16,3.3-16.81,4.77-.66-3.44-1.72-6.85-2.92-9.96,6.15-1.08,12.38-1.81,18.75-1.81Zm-40.16-34.76c20.67-2.31,42.15-3.5,62.86-.4,18.51,2.77,51.41,12.79,44.97,35.74-5.05,17.99-25.9,30.24-42.07,39.4-16.74,9.48-34.43,17.34-51.76,25.88-45.54,22.46-87.2,50.71-133.26,72.51-48.27,22.86-107.75,46.93-164.6,35.17-16.38-3.38-35.56-11.56-33.45-29.67,1.8-15.47,12.23-29.38,22.53-41.03,9.87-11.17,21.23-22.45,33.6-32.73,1.86,3.69,4.01,7.27,6.44,10.7-13.71,9.75-26.27,21.99-32.94,35.67-5.13,10.52-9.11,26.08-.15,36.49,18.12,21.04,61.66,10.9,84.46,5.84,53.36-11.83,99.13-36.9,144.24-64.06,19.15-11.53,37.77-22.53,58.46-31.65,19.44-8.57,39.09-16.89,57.8-26.69,15.06-7.88,32.06-16.64,41.83-30.15,5.97-8.25,5.44-21.22-3.72-28.05-12.25-9.12-29.98-9.9-44.79-9.43-14.8.46-29.86,2-44.04,5.71-1.68-2.52-3.41-5.03-5.19-7.49-.41-.57-.82-1.17-1.23-1.76Zm-5.44-7.96c19.51-1.97,39.26-3.61,58.96-2.43,23.21,1.39,54.69,6.81,63.35,30.64,8.76,24.1-16.1,44.47-34.39,57.33-20.7,14.56-43.18,27.1-65.29,39.81-58.86,33.86-120.04,67.27-187.16,86.57-25.97,7.47-53.05,13.19-80.5,14.85-24.91,1.5-57.84,1.54-77.5-16.11-25.41-22.83-4.18-54.19,13.44-73.59,13.88-15.27,29.77-29.7,46.87-42.39,1.08,5.11,2.73,10.2,4.97,15.15-3.39,2.78-6.73,5.6-9.97,8.45-18.22,15.97-37.18,34.44-45.55,56.81-21.18,56.65,82.96,48.13,114.23,40.57,55.1-13.33,104.94-39.94,152.69-66.96,20.82-11.78,41.2-24.44,62.6-35.36,16.33-8.34,33.35-15.57,49.42-24.33,22.09-12.04,67.88-37.97,43.91-66.89-11.13-13.42-33.26-17.22-50.08-18.55-18.8-1.49-37.78-.84-56.25,1.92-1.21-1.81-2.45-3.66-3.75-5.48Z" style="fill:#f2e3cc;"/><path d="m542.02,268.38c13.56,27.8,94.4,23.16,170.52-5.7,76.13-28.86,126.84-74.8,113.28-102.59-12.96-26.55-43.06-54.83-64.47-93.69-1.68-3.04-94.51,94.34-97.92,95.63-5.76,2.18-178.04,8.72-174.18,13.19,18.37,21.29,40.24,67.47,52.78,93.17Z" style="fill:#ccc08f;"/><path d="m519.27,240.8c-.82-5.54-2.36-11.07-4-16.36,1.55-.07,3.1-.21,4.65-.32,2.75,5.21,5.42,10.42,7.97,15.5-2.88.39-5.76.75-8.62,1.18Z" style="fill:none;"/><path d="m513.83,219.75c-1.41-4.64-2.91-9.45-4.87-14.02.3.03.59.04.89.06,2.56,4.44,5.1,9.04,7.59,13.68-1.2.08-2.41.21-3.61.29Z" style="fill:none;"/><path d="m740.73,141.15c-21.65,12.6-44.66,24.69-68.26,34.09-27.97,11.13-57.54,19.21-88,23.27-25.5,3.4-50.9,3.61-76.63,3.85-6.28-10.64-12.62-20.22-18.6-27.15-3.85-4.47,168.42-11.01,174.18-13.19,3.41-1.29,96.25-98.67,97.92-95.63,7.52,13.65,16.11,25.94,24.64,37.36-11.58,15.48-27.78,27.21-45.26,37.39Z" style="fill:#ccc08f;"/><path d="m742.04,176.78c-23.84,15.44-50.38,27.15-78.14,35.92-28.13,8.89-57.19,15.33-86.58,20.27-16.23,2.73-32.92,4.45-49.43,6.66-2.55-5.08-5.22-10.29-7.97-15.5,11.94-.81,23.89-2.43,35.74-3.59,35.06-3.46,70.85-7.22,104-18,28.26-9.19,54.94-23.1,79.32-38.72,20.37-13.05,42.64-28.25,56.3-47.83,1.28,1.65,2.51,3.24,3.76,4.85-15.71,21.59-33.53,40.75-57,55.95Z" style="fill:#ccc08f;"/><path d="m642.2,202.97c-35.18,8.62-71.58,11.6-107.87,15.16-5.68.56-11.28.96-16.89,1.34-2.49-4.64-5.03-9.23-7.59-13.68,59.41,4.82,123.13-8.05,174.91-31.58,22.69-10.31,45.8-21.56,66.38-35,13.47-8.79,28.06-19.24,36.98-32.57,1.76,2.33,3.5,4.59,5.25,6.85-38.64,41.04-93.21,75.28-151.18,89.48Z" style="fill:#ccc08f;"/><path d="m676.77,222.42c49.26-15.89,108.08-42.95,132.86-87.67,1.62,2.18,3.23,4.36,4.72,6.5,4.52,6.44,8.47,12.69,11.47,18.84,13.56,27.79-37.15,73.73-113.28,102.59-76.13,28.87-156.96,33.5-170.52,5.7-2.19-4.48-4.67-9.61-7.36-15.1-1.19-2.44-2.44-4.96-3.71-7.53,19.38-.8,38.69-1.4,58-4,29.89-4.02,59.49-10.18,87.82-19.32Z" style="fill:#ccc08f;"/><path d="m753.24,183.95c-25.55,16.07-54.01,28.15-83.65,36.99-35.64,10.64-71.7,15.97-108.49,19.17,6.94-1.21,13.83-2.46,20.62-3.65,30.33-5.34,60.52-11.96,89.35-21.78,51.22-17.45,103.49-46.02,130.23-90.92,2.16,2.79,4.26,5.54,6.29,8.25-15.04,20.23-31.84,37.77-54.36,51.94Z" style="fill:#ccc08f;"/><path d="m796.41,110.29c.9-.98,2.49.32,1.87,1.35-.9,1.49-1.98,2.9-2.99,4.34-.63-.81-1.28-1.67-1.91-2.49,1-1.07,2.05-2.12,3.03-3.2Z" style="fill:#e0d6af;"/><path d="m802.68,115.81c.94-1.33,2.92.39,2.27,1.62-1.13,2.16-2.39,4.24-3.63,6.33-.75-.96-1.51-1.96-2.27-2.93,1.21-1.67,2.44-3.32,3.63-5.02Z" style="fill:#e0d6af;"/><path d="m811.97,126.05c.66-.94,1.9.28,1.53,1.11-1.16,2.6-2.49,5.11-3.87,7.59-.67-.91-1.34-1.82-2.03-2.74,1.46-1.97,2.93-3.94,4.37-5.96Z" style="fill:#e0d6af;"/><path d="m751.15,139.21c-20.59,13.44-43.7,24.69-66.38,35-51.78,23.53-115.5,36.4-174.91,31.58-.67-1.16-1.34-2.29-2.01-3.43,25.73-.24,51.13-.45,76.63-3.85,30.46-4.06,60.03-12.14,88-23.27,23.61-9.4,46.61-21.49,68.26-34.09,17.48-10.18,33.68-21.91,45.26-37.39.71.95,1.43,1.94,2.14,2.88-8.92,13.33-23.52,23.78-36.98,32.57Z" style="fill:#e0d6af;"/><path d="m577.32,232.97c29.4-4.94,58.45-11.38,86.58-20.27,27.76-8.77,54.3-20.48,78.14-35.92,23.47-15.2,41.29-34.36,57-55.95.76.97,1.52,1.97,2.27,2.93-26.74,44.9-79.01,73.47-130.23,90.92-28.84,9.82-59.02,16.44-89.35,21.78-6.79,1.2-13.68,2.44-20.62,3.65,36.8-3.21,72.85-8.53,108.49-19.17,29.63-8.85,58.1-20.93,83.65-36.99,22.52-14.17,39.32-31.7,54.36-51.94.69.92,1.35,1.83,2.03,2.74-24.78,44.72-83.6,71.78-132.86,87.67-28.34,9.15-57.93,15.3-87.82,19.32-19.31,2.6-38.62,3.2-58,4-1-2.01-2.02-4.05-3.05-6.12,16.51-2.21,33.19-3.93,49.43-6.66Z" style="fill:#e0d6af;"/><path d="m738.98,163.81c-24.37,15.62-51.05,29.53-79.32,38.72-33.15,10.78-68.94,14.53-104,18-11.85,1.17-23.79,2.79-35.74,3.59-.82-1.56-1.65-3.11-2.48-4.66,5.61-.38,11.21-.78,16.89-1.34,36.29-3.56,72.69-6.54,107.87-15.16,57.96-14.21,112.53-48.44,151.18-89.48.63.82,1.28,1.68,1.91,2.49-13.66,19.59-35.93,34.78-56.3,47.83Z" style="fill:#e0d6af;"/><path d="m814.35,141.25c4.52,6.44,8.47,12.69,11.47,18.84,13.56,27.79-37.15,73.73-113.28,102.59-76.13,28.87-156.96,33.5-170.52,5.7-2.19-4.48-4.67-9.61-7.36-15.1,109.21-3.29,219.36-30.1,279.7-112.03Z" style="fill:#38373e;"/><path d="m485.68,170.92c13.56,27.79,86.27,26.93,162.4-1.94,76.13-28.86,126.84-74.8,113.28-102.59-13.56-27.8-86.27-26.93-162.4,1.94-76.13,28.86-126.84,74.79-113.28,102.59Z" style="fill:#f2d3a0;"/><path d="m527.87,122.09c36.79-33.9,90.1-53.47,140.84-64.41,19.8-4.27,47.35-10.31,67.4-2.59,23.45,9.03,2.98,33.6-7.94,42.98-26.28,22.56-64.11,35.18-97.59,46.53-17.12,5.8-34.36,11.6-51.93,16.25-17.08,4.52-36.68,8.33-54.35,2.69-1.35-.43-1.75-1.62-1.34-2.76,13.64-37.63,56.78-60.07,94.32-75.03,16.78-6.69,34.42-12.61,51.77-18.09,12.27-3.88,33.71-11.11,45.02-.77,19.38,17.71-37.48,41.81-47.93,47.35-16.69,8.86-32.8,18.29-50.41,25.7-17.65,7.43-39.65,14.54-59.38,7.9-.83-.28-1.45-.91-1.49-1.75-.2-5.02,11.28-11.81,14.99-14.89,10.61-8.79,21.78-16.91,33.63-24.3,20.88-13.02,45.62-24.61,71.85-24.8,22.9-.17-7.4,23.15-13.24,26.99-21.69,14.28-48.49,21.75-73.39,30.3-1.53.52-2.18-1.8-.81-2.36,24.32-9.96,50.15-17.03,72.3-30.79,5.55-3.45,10.5-7.56,14.93-12.14,3.75-3.89,8.95-8.18.47-8.47-14.27-.49-28.29,4.08-40.97,9.18-26.5,10.64-50.78,27.84-70.96,46.45-5.04,4.64-6.41,3.49.7,4.84,6.78,1.28,14.12.43,20.74-.66,14.25-2.34,27.79-8.06,40.52-13.92,17.94-8.27,34.86-18.31,52.28-27.43,8.13-4.25,55.06-31.06,26.56-37.81-10.9-2.58-24.05,2.13-34.06,5.18-9.43,2.86-18.48,6.55-27.78,9.68-25.1,8.46-49.17,18.2-71.19,32.03-18.88,11.85-36.04,27.31-44.08,47.3,26.45,7.25,56.62-4.63,80.72-12.57,22.6-7.45,45.09-14.9,66.86-24.14,22.42-9.52,47.27-21.12,61.56-40.11,4.13-5.49,10.05-15.16,3.84-21.44-4.91-4.97-14.83-5.38-21.39-5.67-41.35-1.8-85.47,13.76-121.76,28.46-28.28,11.45-54.24,27.4-74.52,48.69-6.91,7.25-13.36,15.47-16.24,24.9-4.14,13.58,8.86,20.21,21.47,22.98,20.02,4.4,42.02.49,61.21-3.93,24.18-5.57,47.33-14.65,69.29-25.03,37.04-17.49,78.98-41.66,99.34-76.04.63-1.06,2.21-.08,1.67.91-18.98,34.64-60.5,58.49-96.71,76.18-37.4,18.27-83.21,35.69-127.34,32.09-14.92-1.22-33.4-6.1-33.89-22.36-.48-15.89,15.35-31.08,26.44-41.3Z" style="fill:#f2e3cc;"/><path d="m580.07,136.19c22.12-18.48,48.58-34.5,78.58-40.21,1.19-.23,1.85,1.24.92,1.88-14.89,10.26-31.09,19-47.46,27.19-.48.24-.86-.44-.45-.7,9.85-6.38,20.5-11.68,30.7-17.58,4.5-2.59,8.78-5.42,12.99-8.37-2.9,2.03-10.23,3.15-14.39,4.54-11.61,3.89-22.3,9.76-32.49,15.98-5.24,3.19-10.27,6.67-15.3,10.11-1.85,1.26-14.68,9-7.35,7.44.42-.09.61.54.21.64-1.64.24-3.18.74-4.6,1.49-.24.11-.5-.07-.63-.24-.3-.4-.6-.79-.9-1.18-.25-.33-.11-.75.18-.99Z" style="fill:#f2e3cc;"/></g></g></svg>